<svg width="1440" height="694" viewBox="0 0 1440 694" fill="none" xmlns="http://www.w3.org/2000/svg">
<g opacity="0.3" clip-path="url(#clip0_38_76117)">
<path d="M2367.43 239.034C2099.29 267.62 1265.16 487.534 758.625 410.551C252.088 333.568 -433.39 -117.297 -671.794 -222.866" stroke="url(#paint0_linear_38_76117)" stroke-width="2" stroke-linecap="round"/>
<path d="M2344.78 180.687C2083.32 218.651 1279.41 465.482 776.044 408.47C272.683 351.458 -433.483 -66.4087 -675.388 -161.384" stroke="url(#paint1_linear_38_76117)" stroke-width="2" stroke-linecap="round"/>
<path d="M2317.93 124.193C2063.77 171.115 1291.69 443.217 793.018 405.725C294.346 368.234 -429.584 -16.343 -674.104 -100.757" stroke="url(#paint2_linear_38_76117)" stroke-width="2" stroke-linecap="round"/>
<path d="M2287.07 69.7048C2040.81 125.145 1302.02 420.825 809.497 402.345C316.972 383.865 -421.815 32.7448 -668.078 -41.1752" stroke="url(#paint3_linear_38_76117)" stroke-width="2" stroke-linecap="round"/>
<path d="M2252.44 17.364C2014.61 80.8628 1310.42 398.389 825.436 398.357C340.453 398.325 -410.31 80.7034 -657.459 17.1726" stroke="url(#paint4_linear_38_76117)" stroke-width="2" stroke-linecap="round"/>
<path d="M2214.26 -32.6988C1985.35 38.3834 1316.9 375.993 840.792 393.794C364.68 411.596 -395.212 127.391 -642.412 74.1098" stroke="url(#paint5_linear_38_76117)" stroke-width="2" stroke-linecap="round"/>
<path d="M2172.77 -80.3639C1953.23 -2.18853 1321.5 353.717 855.524 388.689C389.543 423.66 -376.677 172.671 -623.117 129.467" stroke="url(#paint6_linear_38_76117)" stroke-width="2" stroke-linecap="round"/>
<path d="M2128.21 -125.523C1918.44 -40.757 1324.26 331.639 869.597 383.074C414.934 434.509 -354.869 216.417 -599.762 183.086" stroke="url(#paint7_linear_38_76117)" stroke-width="2" stroke-linecap="round"/>
<path d="M2080.84 -168.081C1881.2 -77.2369 1325.21 309.836 882.976 376.986C440.744 444.135 -329.962 258.511 -572.549 234.816" stroke="url(#paint8_linear_38_76117)" stroke-width="2" stroke-linecap="round"/>
<path d="M2030.92 -207.953C1841.7 -111.551 1324.4 288.381 895.632 370.46C466.864 452.538 -302.138 298.842 -541.693 284.518" stroke="url(#paint9_linear_38_76117)" stroke-width="2" stroke-linecap="round"/>
<path d="M1978.7 -245.067C1800.17 -143.633 1321.89 267.346 907.539 363.535C493.186 459.723 -271.587 337.311 -507.412 332.066" stroke="url(#paint10_linear_38_76117)" stroke-width="2" stroke-linecap="round"/>
<path d="M1924.46 -279.362C1756.83 -173.427 1317.74 246.797 918.672 356.247C519.606 465.698 -238.505 373.825 -469.94 377.341" stroke="url(#paint11_linear_38_76117)" stroke-width="2" stroke-linecap="round"/>
<path d="M1868.45 -310.792C1711.88 -200.887 1312.01 226.798 929.012 348.636C546.018 470.474 -203.093 408.303 -429.514 420.236" stroke="url(#paint12_linear_38_76117)" stroke-width="2" stroke-linecap="round"/>
<path d="M1810.96 -339.32C1665.56 -225.977 1304.77 207.412 938.543 340.742C572.32 474.072 -165.559 440.672 -386.38 460.659" stroke="url(#paint13_linear_38_76117)" stroke-width="2" stroke-linecap="round"/>
<path d="M1752.24 -364.925C1618.08 -248.67 1296.09 188.693 947.253 332.602C598.414 476.51 -126.114 470.871 -340.787 498.525" stroke="url(#paint14_linear_38_76117)" stroke-width="2" stroke-linecap="round"/>
<path d="M1692.58 -387.593C1569.67 -268.951 1286.06 170.697 955.132 324.257C624.204 477.817 -84.9697 498.848 -292.99 533.766" stroke="url(#paint15_linear_38_76117)" stroke-width="2" stroke-linecap="round"/>
<path d="M1632.22 -407.326C1520.55 -286.814 1274.75 153.472 962.174 315.747C649.595 478.021 -42.3444 524.559 -243.248 566.322" stroke="url(#paint16_linear_38_76117)" stroke-width="2" stroke-linecap="round"/>
<path d="M1571.45 -424.138C1470.94 -302.263 1262.26 137.063 968.379 307.11C674.5 477.157 1.54677 547.972 -191.82 596.145" stroke="url(#paint17_linear_38_76117)" stroke-width="2" stroke-linecap="round"/>
<path d="M1510.51 -438.052C1421.05 -315.312 1248.66 121.51 973.746 298.386C698.832 475.261 46.4827 569.066 -138.97 623.202" stroke="url(#paint18_linear_38_76117)" stroke-width="2" stroke-linecap="round"/>
<path d="M1449.67 -449.103C1371.11 -325.984 1234.05 106.85 978.281 289.613C722.509 472.375 92.2474 587.828 -84.9592 647.471" stroke="url(#paint19_linear_38_76117)" stroke-width="2" stroke-linecap="round"/>
<path d="M1389.17 -457.34C1321.31 -334.312 1218.53 93.1159 981.992 280.829C745.455 468.542 138.624 604.255 -30.0495 668.94" stroke="url(#paint20_linear_38_76117)" stroke-width="2" stroke-linecap="round"/>
<path d="M1329.26 -462.818C1271.86 -340.336 1202.18 80.3338 984.89 272.072C767.597 463.81 185.398 618.355 25.4995 687.611" stroke="url(#paint21_linear_38_76117)" stroke-width="2" stroke-linecap="round"/>
<path d="M1270.16 -465.606C1222.97 -344.108 1185.11 68.5272 986.99 263.378C788.868 458.228 232.357 630.144 81.4308 703.498" stroke="url(#paint22_linear_38_76117)" stroke-width="2" stroke-linecap="round"/>
<path d="M1212.11 -465.781C1174.81 -345.687 1167.41 57.7139 988.308 254.781C809.205 451.848 279.294 639.649 137.491 716.623" stroke="url(#paint23_linear_38_76117)" stroke-width="2" stroke-linecap="round"/>
<path d="M1155.33 -463.43C1127.59 -345.139 1149.18 47.908 988.867 246.317C828.55 444.726 326.004 646.906 193.431 727.024" stroke="url(#paint24_linear_38_76117)" stroke-width="2" stroke-linecap="round"/>
<path d="M1100.02 -458.649C1081.47 -342.538 1130.52 39.1189 988.689 238.018C846.854 436.917 372.291 651.959 249.011 734.747" stroke="url(#paint25_linear_38_76117)" stroke-width="2" stroke-linecap="round"/>
<path d="M1046.38 -451.543C1036.62 -337.967 1111.53 31.3502 987.8 229.915C864.069 428.481 417.96 654.859 303.992 739.848" stroke="url(#paint26_linear_38_76117)" stroke-width="2" stroke-linecap="round"/>
<path d="M994.592 -442.225C993.198 -331.514 1092.3 24.6028 986.228 222.04C880.154 419.476 462.826 655.67 358.146 742.396" stroke="url(#paint27_linear_38_76117)" stroke-width="2" stroke-linecap="round"/>
<path d="M944.834 -430.814C951.362 -323.275 1072.94 18.871 984.006 214.418C895.076 409.964 506.713 654.458 411.254 742.466" stroke="url(#paint28_linear_38_76117)" stroke-width="2" stroke-linecap="round"/>
<path d="M897.264 -417.436C911.248 -313.351 1053.53 14.1472 981.165 207.078C908.805 400.008 549.448 651.302 463.104 740.147" stroke="url(#paint29_linear_38_76117)" stroke-width="2" stroke-linecap="round"/>
<path d="M852.032 -402.226C872.983 -301.847 1034.16 10.4173 977.741 200.044C921.318 389.67 590.869 646.285 513.495 735.533" stroke="url(#paint30_linear_38_76117)" stroke-width="2" stroke-linecap="round"/>
<path d="M809.271 -385.319C836.688 -288.876 1014.94 7.66482 973.771 193.339C932.598 379.014 630.824 639.497 562.235 728.729" stroke="url(#paint31_linear_38_76117)" stroke-width="2" stroke-linecap="round"/>
<path d="M769.104 -366.862C802.469 -274.554 995.955 5.86741 969.295 186.985C942.636 368.103 669.172 631.035 609.147 719.844" stroke="url(#paint32_linear_38_76117)" stroke-width="2" stroke-linecap="round"/>
<path d="M731.635 -347C770.421 -259 977.282 4.9995 964.353 180.999C951.424 356.999 705.777 620.999 654.062 708.999" stroke="url(#paint33_linear_38_76117)" stroke-width="2" stroke-linecap="round"/>
<path d="M696.957 -325.885C740.628 -242.338 959.008 5.03309 958.986 175.401C958.964 345.768 740.519 609.5 696.825 696.32" stroke="url(#paint34_linear_38_76117)" stroke-width="2" stroke-linecap="round"/>
<path d="M665.148 -303.672C713.162 -224.693 941.213 5.93416 953.237 170.202C965.262 334.471 773.285 596.648 737.295 681.938" stroke="url(#paint35_linear_38_76117)" stroke-width="2" stroke-linecap="round"/>
<path d="M636.269 -280.515C688.082 -206.193 923.972 7.66749 947.151 165.418C970.33 323.169 803.977 582.561 775.342 665.99" stroke="url(#paint36_linear_38_76117)" stroke-width="2" stroke-linecap="round"/>
<path d="M610.369 -256.574C665.436 -186.968 907.359 10.1924 940.773 161.057C974.187 311.923 832.506 567.357 810.853 648.617" stroke="url(#paint37_linear_38_76117)" stroke-width="2" stroke-linecap="round"/>
<path d="M587.479 -232.005C645.257 -167.15 891.439 13.4676 934.147 157.13C976.854 300.792 858.796 551.161 843.725 629.967" stroke="url(#paint38_linear_38_76117)" stroke-width="2" stroke-linecap="round"/>
<path d="M567.618 -206.97C627.568 -146.868 876.276 17.4469 927.319 153.64C978.361 289.833 882.781 534.097 873.874 610.188" stroke="url(#paint39_linear_38_76117)" stroke-width="2" stroke-linecap="round"/>
<path d="M550.787 -181.624C612.378 -126.255 861.928 22.083 920.335 150.593C978.741 279.103 904.411 516.294 901.227 589.434" stroke="url(#paint40_linear_38_76117)" stroke-width="2" stroke-linecap="round"/>
<path d="M536.974 -156.127C599.685 -105.441 848.448 27.3248 913.24 147.989C978.032 268.653 923.646 497.881 925.727 567.859" stroke="url(#paint41_linear_38_76117)" stroke-width="2" stroke-linecap="round"/>
<path d="M526.153 -130.632C589.474 -84.5551 835.885 33.1203 906.082 145.829C976.278 258.537 940.458 478.987 947.334 545.618" stroke="url(#paint42_linear_38_76117)" stroke-width="2" stroke-linecap="round"/>
<path d="M518.281 -105.292C581.718 -63.725 824.28 39.4155 898.903 144.109C973.526 248.803 954.833 459.743 966.019 522.87" stroke="url(#paint43_linear_38_76117)" stroke-width="2" stroke-linecap="round"/>
<path d="M513.304 -80.2568C576.378 -43.0766 813.672 46.1535 891.75 142.825C969.828 239.496 966.769 440.279 981.773 499.769" stroke="url(#paint44_linear_38_76117)" stroke-width="2" stroke-linecap="round"/>
<path d="M511.153 -55.6715C573.405 -22.7315 804.092 53.2779 884.666 141.969C965.24 230.66 976.275 420.723 994.596 476.474" stroke="url(#paint45_linear_38_76117)" stroke-width="2" stroke-linecap="round"/>
<path d="M511.746 -31.6775C572.737 -2.80921 795.566 60.7298 877.693 141.532C959.82 222.335 983.373 401.203 1004.51 453.137" stroke="url(#paint46_linear_38_76117)" stroke-width="2" stroke-linecap="round"/>
<path d="M514.987 -8.41091C574.301 16.5749 788.114 68.4501 870.874 141.504C953.633 214.558 988.098 381.845 1011.54 429.913" stroke="url(#paint47_linear_38_76117)" stroke-width="2" stroke-linecap="round"/>
<path d="M520.768 13.998C578.015 35.3102 781.752 76.379 864.247 141.871C946.743 207.363 990.495 362.771 1015.74 406.951" stroke="url(#paint48_linear_38_76117)" stroke-width="2" stroke-linecap="round"/>
<path d="M528.972 35.4245C583.786 53.2901 776.486 84.4559 857.853 142.618C939.22 200.781 990.62 344.102 1017.17 384.399" stroke="url(#paint49_linear_38_76117)" stroke-width="2" stroke-linecap="round"/>
<path d="M539.468 55.7513C591.511 70.4143 772.322 92.6214 851.728 143.729C931.134 194.837 988.543 325.954 1015.91 362.398" stroke="url(#paint50_linear_38_76117)" stroke-width="2" stroke-linecap="round"/>
<path d="M552.115 74.8672C601.08 86.5869 769.254 100.815 845.907 145.185C922.559 189.555 984.343 308.438 1012.03 341.088" stroke="url(#paint51_linear_38_76117)" stroke-width="2" stroke-linecap="round"/>
<path d="M566.762 92.6696C612.372 101.719 767.275 108.977 840.422 146.966C913.569 184.955 978.106 291.663 1005.64 320.602" stroke="url(#paint52_linear_38_76117)" stroke-width="2" stroke-linecap="round"/>
<path d="M583.251 109.064C625.26 115.728 766.372 117.051 835.307 149.051C904.242 181.052 969.935 275.732 996.861 301.068" stroke="url(#paint53_linear_38_76117)" stroke-width="2" stroke-linecap="round"/>
<path d="M601.414 123.962C639.61 128.538 766.523 124.976 830.589 151.417C894.654 177.857 959.937 260.741 985.807 282.606" stroke="url(#paint54_linear_38_76117)" stroke-width="2" stroke-linecap="round"/>
<path d="M621.075 137.287C655.278 140.079 767.703 132.698 826.294 154.038C884.884 175.379 948.229 246.781 972.616 265.33" stroke="url(#paint55_linear_38_76117)" stroke-width="2" stroke-linecap="round"/>
<path d="M642.052 148.971C672.118 150.291 769.882 140.161 822.446 156.891C875.01 173.621 934.936 233.94 957.434 249.349" stroke="url(#paint56_linear_38_76117)" stroke-width="2" stroke-linecap="round"/>
<path d="M664.159 158.952C689.978 159.118 773.025 147.313 819.068 159.948C865.111 172.583 920.192 222.293 940.417 234.762" stroke="url(#paint57_linear_38_76117)" stroke-width="2" stroke-linecap="round"/>
<path d="M687.203 167.182C708.699 166.516 777.09 154.103 816.177 163.183C855.265 172.262 904.136 211.913 921.728 221.659" stroke="url(#paint58_linear_38_76117)" stroke-width="2" stroke-linecap="round"/>
<path d="M710.987 173.62C728.121 172.444 782.031 160.482 813.79 166.566C845.549 172.65 886.916 202.865 901.541 210.124" stroke="url(#paint59_linear_38_76117)" stroke-width="2" stroke-linecap="round"/>
<path d="M735.31 178.236C748.079 176.875 787.799 166.403 811.92 170.069C836.041 173.735 868.683 195.204 880.035 200.231" stroke="url(#paint60_linear_38_76117)" stroke-width="2" stroke-linecap="round"/>
<path d="M759.972 181.01C768.406 179.785 794.339 171.823 810.576 173.662C826.814 175.501 849.593 188.981 857.397 192.044" stroke="url(#paint61_linear_38_76117)" stroke-width="2" stroke-linecap="round"/>
<path d="M784.769 181.931C788.935 181.162 801.592 176.701 809.767 177.316C817.942 177.93 829.81 184.235 833.818 185.619" stroke="url(#paint62_linear_38_76117)" stroke-width="2" stroke-linecap="round"/>
</g>
<defs>
<linearGradient id="paint0_linear_38_76117" x1="758.434" y1="411.412" x2="811.229" y2="-54.9955" gradientUnits="userSpaceOnUse">
<stop offset="0.0572917" stop-color="#8AEF8A"/>
<stop offset="0.45" stop-color="#809EF9"/>
<stop offset="1" stop-color="#7DE97D"/>
</linearGradient>
<linearGradient id="paint1_linear_38_76117" x1="775.919" y1="409.323" x2="810.405" y2="-49.7771" gradientUnits="userSpaceOnUse">
<stop offset="0.0572917" stop-color="#8AEF8A"/>
<stop offset="0.45" stop-color="#809EF9"/>
<stop offset="1" stop-color="#7DE97D"/>
</linearGradient>
<linearGradient id="paint2_linear_38_76117" x1="792.956" y1="406.568" x2="809.876" y2="-45.1741" gradientUnits="userSpaceOnUse">
<stop offset="0.0572917" stop-color="#8AEF8A"/>
<stop offset="0.45" stop-color="#809EF9"/>
<stop offset="1" stop-color="#7DE97D"/>
</linearGradient>
<linearGradient id="paint3_linear_38_76117" x1="809.497" y1="403.175" x2="809.497" y2="-41.1752" gradientUnits="userSpaceOnUse">
<stop offset="0.0572917" stop-color="#8AEF8A"/>
<stop offset="0.45" stop-color="#809EF9"/>
<stop offset="1" stop-color="#7DE97D"/>
</linearGradient>
<linearGradient id="paint4_linear_38_76117" x1="825.496" y1="399.172" x2="809.13" y2="-37.7585" gradientUnits="userSpaceOnUse">
<stop offset="0.0572917" stop-color="#8AEF8A"/>
<stop offset="0.45" stop-color="#809EF9"/>
<stop offset="1" stop-color="#7DE97D"/>
</linearGradient>
<linearGradient id="paint5_linear_38_76117" x1="840.909" y1="394.592" x2="808.648" y2="-34.8886" gradientUnits="userSpaceOnUse">
<stop offset="0.0572917" stop-color="#8AEF8A"/>
<stop offset="0.45" stop-color="#809EF9"/>
<stop offset="1" stop-color="#7DE97D"/>
</linearGradient>
<linearGradient id="paint6_linear_38_76117" x1="855.696" y1="389.467" x2="807.93" y2="-32.5201" gradientUnits="userSpaceOnUse">
<stop offset="0.0572917" stop-color="#8AEF8A"/>
<stop offset="0.45" stop-color="#809EF9"/>
<stop offset="1" stop-color="#7DE97D"/>
</linearGradient>
<linearGradient id="paint7_linear_38_76117" x1="869.822" y1="383.832" x2="806.866" y2="-30.5963" gradientUnits="userSpaceOnUse">
<stop offset="0.0572917" stop-color="#8AEF8A"/>
<stop offset="0.45" stop-color="#809EF9"/>
<stop offset="1" stop-color="#7DE97D"/>
</linearGradient>
<linearGradient id="paint8_linear_38_76117" x1="883.252" y1="377.72" x2="805.355" y2="-29.0519" gradientUnits="userSpaceOnUse">
<stop offset="0.0572917" stop-color="#8AEF8A"/>
<stop offset="0.45" stop-color="#809EF9"/>
<stop offset="1" stop-color="#7DE97D"/>
</linearGradient>
<linearGradient id="paint9_linear_38_76117" x1="895.955" y1="371.17" x2="803.306" y2="-27.8107" gradientUnits="userSpaceOnUse">
<stop offset="0.0572917" stop-color="#8AEF8A"/>
<stop offset="0.45" stop-color="#809EF9"/>
<stop offset="1" stop-color="#7DE97D"/>
</linearGradient>
<linearGradient id="paint10_linear_38_76117" x1="907.906" y1="364.219" x2="800.637" y2="-26.7865" gradientUnits="userSpaceOnUse">
<stop offset="0.0572917" stop-color="#8AEF8A"/>
<stop offset="0.45" stop-color="#809EF9"/>
<stop offset="1" stop-color="#7DE97D"/>
</linearGradient>
<linearGradient id="paint11_linear_38_76117" x1="919.081" y1="356.905" x2="797.278" y2="-25.886" gradientUnits="userSpaceOnUse">
<stop offset="0.0572917" stop-color="#8AEF8A"/>
<stop offset="0.45" stop-color="#809EF9"/>
<stop offset="1" stop-color="#7DE97D"/>
</linearGradient>
<linearGradient id="paint12_linear_38_76117" x1="929.46" y1="349.265" x2="793.17" y2="-25.0047" gradientUnits="userSpaceOnUse">
<stop offset="0.0572917" stop-color="#8AEF8A"/>
<stop offset="0.45" stop-color="#809EF9"/>
<stop offset="1" stop-color="#7DE97D"/>
</linearGradient>
<linearGradient id="paint13_linear_38_76117" x1="939.027" y1="341.341" x2="788.268" y2="-24.0282" gradientUnits="userSpaceOnUse">
<stop offset="0.0572917" stop-color="#8AEF8A"/>
<stop offset="0.45" stop-color="#809EF9"/>
<stop offset="1" stop-color="#7DE97D"/>
</linearGradient>
<linearGradient id="paint14_linear_38_76117" x1="947.769" y1="333.17" x2="782.54" y2="-22.8348" gradientUnits="userSpaceOnUse">
<stop offset="0.0572917" stop-color="#8AEF8A"/>
<stop offset="0.45" stop-color="#809EF9"/>
<stop offset="1" stop-color="#7DE97D"/>
</linearGradient>
<linearGradient id="paint15_linear_38_76117" x1="955.678" y1="324.794" x2="775.973" y2="-21.2916" gradientUnits="userSpaceOnUse">
<stop offset="0.0572917" stop-color="#8AEF8A"/>
<stop offset="0.45" stop-color="#809EF9"/>
<stop offset="1" stop-color="#7DE97D"/>
</linearGradient>
<linearGradient id="paint16_linear_38_76117" x1="962.746" y1="316.252" x2="768.572" y2="-19.2593" gradientUnits="userSpaceOnUse">
<stop offset="0.0572917" stop-color="#8AEF8A"/>
<stop offset="0.45" stop-color="#809EF9"/>
<stop offset="1" stop-color="#7DE97D"/>
</linearGradient>
<linearGradient id="paint17_linear_38_76117" x1="968.974" y1="307.583" x2="760.367" y2="-16.5916" gradientUnits="userSpaceOnUse">
<stop offset="0.0572917" stop-color="#8AEF8A"/>
<stop offset="0.45" stop-color="#809EF9"/>
<stop offset="1" stop-color="#7DE97D"/>
</linearGradient>
<linearGradient id="paint18_linear_38_76117" x1="974.361" y1="298.826" x2="751.407" y2="-13.1362" gradientUnits="userSpaceOnUse">
<stop offset="0.0572917" stop-color="#8AEF8A"/>
<stop offset="0.45" stop-color="#809EF9"/>
<stop offset="1" stop-color="#7DE97D"/>
</linearGradient>
<linearGradient id="paint19_linear_38_76117" x1="978.913" y1="290.02" x2="741.776" y2="-8.74002" gradientUnits="userSpaceOnUse">
<stop offset="0.0572917" stop-color="#8AEF8A"/>
<stop offset="0.45" stop-color="#809EF9"/>
<stop offset="1" stop-color="#7DE97D"/>
</linearGradient>
<linearGradient id="paint20_linear_38_76117" x1="982.639" y1="281.204" x2="731.588" y2="-3.25256" gradientUnits="userSpaceOnUse">
<stop offset="0.0572917" stop-color="#8AEF8A"/>
<stop offset="0.45" stop-color="#809EF9"/>
<stop offset="1" stop-color="#7DE97D"/>
</linearGradient>
<linearGradient id="paint21_linear_38_76117" x1="985.547" y1="272.413" x2="720.993" y2="3.46923" gradientUnits="userSpaceOnUse">
<stop offset="0.0572917" stop-color="#8AEF8A"/>
<stop offset="0.45" stop-color="#809EF9"/>
<stop offset="1" stop-color="#7DE97D"/>
</linearGradient>
<linearGradient id="paint22_linear_38_76117" x1="987.655" y1="263.687" x2="710.177" y2="11.5517" gradientUnits="userSpaceOnUse">
<stop offset="0.0572917" stop-color="#8AEF8A"/>
<stop offset="0.45" stop-color="#809EF9"/>
<stop offset="1" stop-color="#7DE97D"/>
</linearGradient>
<linearGradient id="paint23_linear_38_76117" x1="988.979" y1="255.058" x2="699.365" y2="21.0961" gradientUnits="userSpaceOnUse">
<stop offset="0.0572917" stop-color="#8AEF8A"/>
<stop offset="0.45" stop-color="#809EF9"/>
<stop offset="1" stop-color="#7DE97D"/>
</linearGradient>
<linearGradient id="paint24_linear_38_76117" x1="989.539" y1="246.562" x2="688.82" y2="32.1678" gradientUnits="userSpaceOnUse">
<stop offset="0.0572917" stop-color="#8AEF8A"/>
<stop offset="0.45" stop-color="#809EF9"/>
<stop offset="1" stop-color="#7DE97D"/>
</linearGradient>
<linearGradient id="paint25_linear_38_76117" x1="989.361" y1="238.232" x2="678.838" y2="44.7848" gradientUnits="userSpaceOnUse">
<stop offset="0.0572917" stop-color="#8AEF8A"/>
<stop offset="0.45" stop-color="#809EF9"/>
<stop offset="1" stop-color="#7DE97D"/>
</linearGradient>
<linearGradient id="paint26_linear_38_76117" x1="988.468" y1="230.099" x2="669.734" y2="58.9033" gradientUnits="userSpaceOnUse">
<stop offset="0.0572917" stop-color="#8AEF8A"/>
<stop offset="0.45" stop-color="#809EF9"/>
<stop offset="1" stop-color="#7DE97D"/>
</linearGradient>
<linearGradient id="paint27_linear_38_76117" x1="986.891" y1="222.193" x2="661.834" y2="74.4115" gradientUnits="userSpaceOnUse">
<stop offset="0.0572917" stop-color="#8AEF8A"/>
<stop offset="0.45" stop-color="#809EF9"/>
<stop offset="1" stop-color="#7DE97D"/>
</linearGradient>
<linearGradient id="paint28_linear_38_76117" x1="984.66" y1="214.543" x2="655.457" y2="91.1183" gradientUnits="userSpaceOnUse">
<stop offset="0.0572917" stop-color="#8AEF8A"/>
<stop offset="0.45" stop-color="#809EF9"/>
<stop offset="1" stop-color="#7DE97D"/>
</linearGradient>
<linearGradient id="paint29_linear_38_76117" x1="981.809" y1="207.176" x2="650.888" y2="108.755" gradientUnits="userSpaceOnUse">
<stop offset="0.0572917" stop-color="#8AEF8A"/>
<stop offset="0.45" stop-color="#809EF9"/>
<stop offset="1" stop-color="#7DE97D"/>
</linearGradient>
<linearGradient id="paint30_linear_38_76117" x1="978.372" y1="200.115" x2="648.359" y2="126.979" gradientUnits="userSpaceOnUse">
<stop offset="0.0572917" stop-color="#8AEF8A"/>
<stop offset="0.45" stop-color="#809EF9"/>
<stop offset="1" stop-color="#7DE97D"/>
</linearGradient>
<linearGradient id="paint31_linear_38_76117" x1="974.387" y1="193.386" x2="648.023" y2="145.389" gradientUnits="userSpaceOnUse">
<stop offset="0.0572917" stop-color="#8AEF8A"/>
<stop offset="0.45" stop-color="#809EF9"/>
<stop offset="1" stop-color="#7DE97D"/>
</linearGradient>
<linearGradient id="paint32_linear_38_76117" x1="969.895" y1="187.008" x2="649.941" y2="163.545" gradientUnits="userSpaceOnUse">
<stop offset="0.0572917" stop-color="#8AEF8A"/>
<stop offset="0.45" stop-color="#809EF9"/>
<stop offset="1" stop-color="#7DE97D"/>
</linearGradient>
<linearGradient id="paint33_linear_38_76117" x1="964.934" y1="180.999" x2="654.062" y2="180.999" gradientUnits="userSpaceOnUse">
<stop offset="0.0572917" stop-color="#8AEF8A"/>
<stop offset="0.45" stop-color="#809EF9"/>
<stop offset="1" stop-color="#7DE97D"/>
</linearGradient>
<linearGradient id="paint34_linear_38_76117" x1="959.546" y1="175.38" x2="660.234" y2="197.328" gradientUnits="userSpaceOnUse">
<stop offset="0.0572917" stop-color="#8AEF8A"/>
<stop offset="0.45" stop-color="#809EF9"/>
<stop offset="1" stop-color="#7DE97D"/>
</linearGradient>
<linearGradient id="paint35_linear_38_76117" x1="953.776" y1="170.162" x2="668.208" y2="212.159" gradientUnits="userSpaceOnUse">
<stop offset="0.0572917" stop-color="#8AEF8A"/>
<stop offset="0.45" stop-color="#809EF9"/>
<stop offset="1" stop-color="#7DE97D"/>
</linearGradient>
<linearGradient id="paint36_linear_38_76117" x1="947.667" y1="165.36" x2="677.656" y2="225.198" gradientUnits="userSpaceOnUse">
<stop offset="0.0572917" stop-color="#8AEF8A"/>
<stop offset="0.45" stop-color="#809EF9"/>
<stop offset="1" stop-color="#7DE97D"/>
</linearGradient>
<linearGradient id="paint37_linear_38_76117" x1="941.265" y1="160.983" x2="688.208" y2="236.245" gradientUnits="userSpaceOnUse">
<stop offset="0.0572917" stop-color="#8AEF8A"/>
<stop offset="0.45" stop-color="#809EF9"/>
<stop offset="1" stop-color="#7DE97D"/>
</linearGradient>
<linearGradient id="paint38_linear_38_76117" x1="934.614" y1="157.04" x2="699.469" y2="245.201" gradientUnits="userSpaceOnUse">
<stop offset="0.0572917" stop-color="#8AEF8A"/>
<stop offset="0.45" stop-color="#809EF9"/>
<stop offset="1" stop-color="#7DE97D"/>
</linearGradient>
<linearGradient id="paint39_linear_38_76117" x1="927.76" y1="153.537" x2="711.056" y2="252.059" gradientUnits="userSpaceOnUse">
<stop offset="0.0572917" stop-color="#8AEF8A"/>
<stop offset="0.45" stop-color="#809EF9"/>
<stop offset="1" stop-color="#7DE97D"/>
</linearGradient>
<linearGradient id="paint40_linear_38_76117" x1="920.75" y1="150.479" x2="722.618" y2="256.898" gradientUnits="userSpaceOnUse">
<stop offset="0.0572917" stop-color="#8AEF8A"/>
<stop offset="0.45" stop-color="#809EF9"/>
<stop offset="1" stop-color="#7DE97D"/>
</linearGradient>
<linearGradient id="paint41_linear_38_76117" x1="913.629" y1="147.865" x2="733.853" y2="259.861" gradientUnits="userSpaceOnUse">
<stop offset="0.0572917" stop-color="#8AEF8A"/>
<stop offset="0.45" stop-color="#809EF9"/>
<stop offset="1" stop-color="#7DE97D"/>
</linearGradient>
<linearGradient id="paint42_linear_38_76117" x1="906.444" y1="145.697" x2="744.518" y2="261.14" gradientUnits="userSpaceOnUse">
<stop offset="0.0572917" stop-color="#8AEF8A"/>
<stop offset="0.45" stop-color="#809EF9"/>
<stop offset="1" stop-color="#7DE97D"/>
</linearGradient>
<linearGradient id="paint43_linear_38_76117" x1="899.238" y1="143.971" x2="754.431" y2="260.952" gradientUnits="userSpaceOnUse">
<stop offset="0.0572917" stop-color="#8AEF8A"/>
<stop offset="0.45" stop-color="#809EF9"/>
<stop offset="1" stop-color="#7DE97D"/>
</linearGradient>
<linearGradient id="paint44_linear_38_76117" x1="892.059" y1="142.681" x2="763.471" y2="259.524" gradientUnits="userSpaceOnUse">
<stop offset="0.0572917" stop-color="#8AEF8A"/>
<stop offset="0.45" stop-color="#809EF9"/>
<stop offset="1" stop-color="#7DE97D"/>
</linearGradient>
<linearGradient id="paint45_linear_38_76117" x1="884.947" y1="141.822" x2="771.567" y2="257.084" gradientUnits="userSpaceOnUse">
<stop offset="0.0572917" stop-color="#8AEF8A"/>
<stop offset="0.45" stop-color="#809EF9"/>
<stop offset="1" stop-color="#7DE97D"/>
</linearGradient>
<linearGradient id="paint46_linear_38_76117" x1="877.949" y1="141.384" x2="778.697" y2="253.844" gradientUnits="userSpaceOnUse">
<stop offset="0.0572917" stop-color="#8AEF8A"/>
<stop offset="0.45" stop-color="#809EF9"/>
<stop offset="1" stop-color="#7DE97D"/>
</linearGradient>
<linearGradient id="paint47_linear_38_76117" x1="871.104" y1="141.356" x2="784.872" y2="249.996" gradientUnits="userSpaceOnUse">
<stop offset="0.0572917" stop-color="#8AEF8A"/>
<stop offset="0.45" stop-color="#809EF9"/>
<stop offset="1" stop-color="#7DE97D"/>
</linearGradient>
<linearGradient id="paint48_linear_38_76117" x1="864.453" y1="141.725" x2="790.135" y2="245.712" gradientUnits="userSpaceOnUse">
<stop offset="0.0572917" stop-color="#8AEF8A"/>
<stop offset="0.45" stop-color="#809EF9"/>
<stop offset="1" stop-color="#7DE97D"/>
</linearGradient>
<linearGradient id="paint49_linear_38_76117" x1="858.034" y1="142.474" x2="794.545" y2="241.136" gradientUnits="userSpaceOnUse">
<stop offset="0.0572917" stop-color="#8AEF8A"/>
<stop offset="0.45" stop-color="#809EF9"/>
<stop offset="1" stop-color="#7DE97D"/>
</linearGradient>
<linearGradient id="paint50_linear_38_76117" x1="851.886" y1="143.59" x2="798.179" y2="236.391" gradientUnits="userSpaceOnUse">
<stop offset="0.0572917" stop-color="#8AEF8A"/>
<stop offset="0.45" stop-color="#809EF9"/>
<stop offset="1" stop-color="#7DE97D"/>
</linearGradient>
<linearGradient id="paint51_linear_38_76117" x1="846.043" y1="145.051" x2="801.117" y2="231.572" gradientUnits="userSpaceOnUse">
<stop offset="0.0572917" stop-color="#8AEF8A"/>
<stop offset="0.45" stop-color="#809EF9"/>
<stop offset="1" stop-color="#7DE97D"/>
</linearGradient>
<linearGradient id="paint52_linear_38_76117" x1="840.538" y1="146.839" x2="803.446" y2="226.758" gradientUnits="userSpaceOnUse">
<stop offset="0.0572917" stop-color="#8AEF8A"/>
<stop offset="0.45" stop-color="#809EF9"/>
<stop offset="1" stop-color="#7DE97D"/>
</linearGradient>
<linearGradient id="paint53_linear_38_76117" x1="835.403" y1="148.932" x2="805.251" y2="222.005" gradientUnits="userSpaceOnUse">
<stop offset="0.0572917" stop-color="#8AEF8A"/>
<stop offset="0.45" stop-color="#809EF9"/>
<stop offset="1" stop-color="#7DE97D"/>
</linearGradient>
<linearGradient id="paint54_linear_38_76117" x1="830.668" y1="151.306" x2="806.617" y2="217.353" gradientUnits="userSpaceOnUse">
<stop offset="0.0572917" stop-color="#8AEF8A"/>
<stop offset="0.45" stop-color="#809EF9"/>
<stop offset="1" stop-color="#7DE97D"/>
</linearGradient>
<linearGradient id="paint55_linear_38_76117" x1="826.356" y1="153.937" x2="807.618" y2="212.828" gradientUnits="userSpaceOnUse">
<stop offset="0.0572917" stop-color="#8AEF8A"/>
<stop offset="0.45" stop-color="#809EF9"/>
<stop offset="1" stop-color="#7DE97D"/>
</linearGradient>
<linearGradient id="paint56_linear_38_76117" x1="822.495" y1="156.801" x2="808.327" y2="208.443" gradientUnits="userSpaceOnUse">
<stop offset="0.0572917" stop-color="#8AEF8A"/>
<stop offset="0.45" stop-color="#809EF9"/>
<stop offset="1" stop-color="#7DE97D"/>
</linearGradient>
<linearGradient id="paint57_linear_38_76117" x1="819.104" y1="159.87" x2="808.809" y2="204.201" gradientUnits="userSpaceOnUse">
<stop offset="0.0572917" stop-color="#8AEF8A"/>
<stop offset="0.45" stop-color="#809EF9"/>
<stop offset="1" stop-color="#7DE97D"/>
</linearGradient>
<linearGradient id="paint58_linear_38_76117" x1="816.202" y1="163.116" x2="809.121" y2="200.095" gradientUnits="userSpaceOnUse">
<stop offset="0.0572917" stop-color="#8AEF8A"/>
<stop offset="0.45" stop-color="#809EF9"/>
<stop offset="1" stop-color="#7DE97D"/>
</linearGradient>
<linearGradient id="paint59_linear_38_76117" x1="813.807" y1="166.511" x2="809.31" y2="196.114" gradientUnits="userSpaceOnUse">
<stop offset="0.0572917" stop-color="#8AEF8A"/>
<stop offset="0.45" stop-color="#809EF9"/>
<stop offset="1" stop-color="#7DE97D"/>
</linearGradient>
<linearGradient id="paint60_linear_38_76117" x1="811.929" y1="170.028" x2="809.415" y2="192.238" gradientUnits="userSpaceOnUse">
<stop offset="0.0572917" stop-color="#8AEF8A"/>
<stop offset="0.45" stop-color="#809EF9"/>
<stop offset="1" stop-color="#7DE97D"/>
</linearGradient>
<linearGradient id="paint61_linear_38_76117" x1="810.58" y1="173.634" x2="809.468" y2="188.444" gradientUnits="userSpaceOnUse">
<stop offset="0.0572917" stop-color="#8AEF8A"/>
<stop offset="0.45" stop-color="#809EF9"/>
<stop offset="1" stop-color="#7DE97D"/>
</linearGradient>
<linearGradient id="paint62_linear_38_76117" x1="809.768" y1="177.302" x2="809.491" y2="184.708" gradientUnits="userSpaceOnUse">
<stop offset="0.0572917" stop-color="#8AEF8A"/>
<stop offset="0.45" stop-color="#809EF9"/>
<stop offset="1" stop-color="#7DE97D"/>
</linearGradient>
<clipPath id="clip0_38_76117">
<rect width="1791" height="1280" fill="white" transform="translate(-86 -459)"/>
</clipPath>
</defs>
</svg>
