<svg width="596" height="547" viewBox="0 0 596 547" fill="none" xmlns="http://www.w3.org/2000/svg">
<path opacity="0.05" d="M439.755 118.968C450.323 121.382 458.683 128.775 461.685 138.364L515.006 308.664C518.009 318.252 515.197 328.58 507.631 335.755L373.251 463.196C365.685 470.371 354.514 473.305 343.945 470.892L156.244 428.032C145.676 425.618 137.316 418.225 134.314 408.636L80.9927 238.336C77.9898 228.748 80.8018 218.42 88.3676 211.245L222.748 83.8044C230.313 76.6293 241.485 73.6952 252.054 76.108L439.755 118.968Z" stroke="url(#paint0_linear_1851_151591)" stroke-opacity="0.5" stroke-width="5"/>
<path opacity="0.1" d="M427.608 121.757C437.777 123.738 446.021 130.536 449.233 139.592L506.295 300.425C509.508 309.48 507.201 319.418 500.245 326.494L376.687 452.167C369.73 459.243 359.18 462.383 349.01 460.403L168.39 425.243C158.221 423.263 149.977 416.465 146.765 407.409L89.7034 246.575C86.49 237.52 88.7969 227.582 95.7534 220.507L219.311 94.8333C226.268 87.7577 236.819 84.6178 246.988 86.5971L427.608 121.757Z" stroke="url(#paint1_linear_1851_151591)" stroke-opacity="0.5" stroke-width="5"/>
<path opacity="0.14" d="M415.855 125.126C425.606 126.701 433.699 132.92 437.086 141.442L497.234 292.787C500.621 301.307 498.786 310.836 492.422 317.783L379.38 441.16C373.016 448.106 363.088 451.416 353.336 449.842L180.146 421.874C170.396 420.299 162.302 414.08 158.916 405.558L98.7677 254.213C95.3805 245.693 97.2155 236.163 103.58 229.217L216.621 105.84C222.986 98.8936 232.914 95.5839 242.666 97.1582L415.855 125.126Z" stroke="url(#paint2_linear_1851_151591)" stroke-opacity="0.5" stroke-width="5"/>
<path opacity="0.19" d="M404.522 129.052C413.837 130.252 421.746 135.911 425.269 143.899L487.854 285.762C491.379 293.749 489.981 302.852 484.19 309.64L381.333 430.209C375.542 436.998 366.236 440.441 356.92 439.243L191.478 417.949C182.163 416.749 174.254 411.09 170.731 403.102L108.146 261.239C104.621 253.252 106.018 244.149 111.809 237.361L214.667 116.791C220.458 110.003 229.764 106.559 239.08 107.758L404.522 129.052Z" stroke="url(#paint3_linear_1851_151591)" stroke-opacity="0.5" stroke-width="5"/>
<path opacity="0.23" d="M393.639 133.512C402.501 134.366 410.193 139.484 413.818 146.94L478.194 279.361C481.819 286.816 480.825 295.477 475.587 302.079L382.556 419.347C377.318 425.95 368.631 429.492 359.768 428.639L202.36 413.488C193.497 412.634 185.805 407.515 182.18 400.059L117.804 267.639C114.179 260.184 115.173 251.523 120.411 244.921L213.443 127.652C218.681 121.05 227.367 117.508 236.23 118.36L393.639 133.512Z" stroke="url(#paint4_linear_1851_151591)" stroke-opacity="0.5" stroke-width="5"/>
<path opacity="0.28" d="M383.233 138.483C391.629 139.021 399.074 143.62 402.763 150.549L468.292 273.593C471.982 280.52 471.355 288.725 466.649 295.114L383.06 408.609C378.353 414.999 370.282 418.604 361.886 418.067L212.767 408.517C204.372 407.979 196.927 403.38 193.238 396.452L127.709 273.408C124.019 266.481 124.646 258.276 129.352 251.886L212.941 138.392C217.647 132.002 225.719 128.396 234.115 128.933L383.233 138.483Z" stroke="url(#paint5_linear_1851_151591)" stroke-opacity="0.5" stroke-width="5"/>
<path opacity="0.32" d="M373.328 143.939C381.244 144.193 388.412 148.295 392.131 154.701L458.18 268.465C461.9 274.87 461.604 282.606 457.407 288.758L382.853 398.026C378.656 404.178 371.193 407.812 363.276 407.559L222.672 403.062C214.756 402.809 207.588 398.707 203.87 392.301L137.82 278.537C134.101 272.132 134.396 264.396 138.594 258.244L213.148 148.976C217.345 142.824 224.808 139.19 232.725 139.443L373.328 143.939Z" stroke="url(#paint6_linear_1851_151591)" stroke-opacity="0.5" stroke-width="5"/>
<path opacity="0.37" d="M363.948 149.853C371.374 149.854 378.236 153.482 381.949 159.372L447.897 263.982C451.611 269.872 451.61 277.129 447.897 283.018L381.949 387.628C378.236 393.518 371.374 397.147 363.948 397.147L232.051 397.147C224.625 397.146 217.763 393.518 214.05 387.628L148.102 283.018C144.389 277.128 144.389 269.871 148.102 263.982L214.05 159.372C217.763 153.482 224.625 149.853 232.052 149.853L363.948 149.853Z" stroke="url(#paint7_linear_1851_151591)" stroke-opacity="0.5" stroke-width="5"/>
<path opacity="0.41" d="M355.117 156.2C362.044 155.979 368.573 159.158 372.246 164.542L437.481 260.151C441.154 265.534 441.412 272.303 438.158 277.907L380.365 377.451C377.111 383.056 370.839 386.645 363.912 386.867L240.884 390.801C233.957 391.022 227.428 387.843 223.755 382.459L158.52 286.85C154.847 281.467 154.589 274.698 157.843 269.094L215.636 169.55C218.89 163.945 225.162 160.356 232.089 160.134L355.117 156.2Z" stroke="url(#paint8_linear_1851_151591)" stroke-opacity="0.5" stroke-width="5"/>
<path opacity="0.46" d="M346.853 162.949C353.274 162.538 359.446 165.295 363.045 170.182L426.966 256.972C430.565 261.858 431.044 268.132 428.223 273.43L378.113 367.522C375.292 372.82 369.598 376.337 363.178 376.749L249.146 384.051C242.726 384.462 236.554 381.705 232.955 376.818L169.033 290.028C165.434 285.142 164.955 278.868 167.776 273.57L217.887 179.478C220.708 174.18 226.401 170.663 232.822 170.252L346.853 162.949Z" stroke="url(#paint9_linear_1851_151591)" stroke-opacity="0.5" stroke-width="5"/>
<path opacity="0.5" d="M339.18 170.074C345.088 169.506 350.879 171.867 354.371 176.269L416.392 254.448C419.884 258.849 420.547 264.623 418.131 269.593L375.213 357.873C372.797 362.844 367.668 366.256 361.76 366.825L256.821 376.926C250.912 377.495 245.121 375.133 241.63 370.731L179.608 292.552C176.116 288.151 175.453 282.377 177.87 277.407L220.787 189.127C223.204 184.157 228.332 180.744 234.241 180.175L339.18 170.074Z" stroke="url(#paint10_linear_1851_151591)" stroke-opacity="0.5" stroke-width="5"/>
<path opacity="0.55" d="M332.111 177.543C337.504 176.849 342.892 178.843 346.244 182.773L405.794 252.577C409.147 256.506 409.955 261.777 407.915 266.401L371.682 348.532C369.642 353.156 365.063 356.433 359.67 357.127L263.887 369.455C258.495 370.149 253.107 368.156 249.754 364.225L190.205 294.422C186.852 290.492 186.043 285.222 188.083 280.598L224.317 198.466C226.357 193.842 230.936 190.566 236.329 189.871L332.111 177.543Z" stroke="url(#paint11_linear_1851_151591)" stroke-opacity="0.5" stroke-width="5"/>
<path opacity="0.59" d="M325.667 185.329C330.543 184.542 335.507 186.196 338.689 189.67L395.21 251.359C398.392 254.831 399.31 259.596 397.616 263.857L367.542 339.529C365.849 343.789 361.802 346.899 356.927 347.687L270.332 361.67C265.456 362.457 260.492 360.803 257.31 357.329L200.789 295.641C197.607 292.168 196.69 287.403 198.383 283.143L228.457 207.47C230.15 203.21 234.197 200.1 239.072 199.312L325.667 185.329Z" stroke="url(#paint12_linear_1851_151591)" stroke-opacity="0.5" stroke-width="5"/>
<path opacity="0.64" d="M319.862 193.399C324.22 192.551 328.742 193.896 331.723 196.929L384.677 250.789C387.658 253.821 388.647 258.08 387.27 261.961L362.815 330.89C361.438 334.771 357.905 337.684 353.547 338.533L276.138 353.601C271.78 354.449 267.258 353.104 264.277 350.071L211.323 296.211C208.342 293.179 207.353 288.92 208.73 285.039L233.185 216.11C234.562 212.23 238.095 209.316 242.454 208.467L319.862 193.399Z" stroke="url(#paint13_linear_1851_151591)" stroke-opacity="0.5" stroke-width="5"/>
<path opacity="0.68" d="M314.707 201.722C318.55 200.844 322.612 201.911 325.363 204.521L374.229 250.863C376.98 253.472 378.003 257.227 376.911 260.714L357.521 322.641C356.43 326.128 353.39 328.816 349.547 329.694L281.291 345.279C277.449 346.157 273.386 345.09 270.635 342.48L221.769 296.138C219.018 293.529 217.996 289.774 219.087 286.287L238.477 224.36C239.569 220.873 242.609 218.185 246.452 217.307L314.707 201.722Z" stroke="url(#paint14_linear_1851_151591)" stroke-opacity="0.5" stroke-width="5"/>
<path opacity="0.73" d="M310.216 210.265C313.547 209.39 317.135 210.21 319.628 212.415L363.905 251.573C366.398 253.777 367.417 257.032 366.579 260.112L351.688 314.808C350.85 317.887 348.281 320.323 344.949 321.198L285.782 336.736C282.451 337.611 278.863 336.791 276.37 334.586L232.094 295.428C229.601 293.224 228.581 289.968 229.42 286.889L244.311 232.193C245.149 229.114 247.718 226.678 251.049 225.803L310.216 210.265Z" stroke="url(#paint15_linear_1851_151591)" stroke-opacity="0.5" stroke-width="5"/>
<path opacity="0.77" d="M306.4 218.996C309.225 218.156 312.325 218.76 314.532 220.58L353.74 252.911C355.947 254.731 356.927 257.491 356.309 260.152L345.34 307.414C344.722 310.075 342.602 312.232 339.776 313.073L289.6 328.004C286.775 328.844 283.675 328.24 281.467 326.42L242.26 294.089C240.053 292.269 239.073 289.509 239.691 286.848L250.66 239.586C251.277 236.925 253.398 234.768 256.223 233.927L306.4 218.996Z" stroke="url(#paint16_linear_1851_151591)" stroke-opacity="0.5" stroke-width="5"/>
<path opacity="0.82" d="M303.266 227.885C305.592 227.109 308.193 227.529 310.089 228.987L343.769 254.868C345.665 256.325 346.568 258.598 346.139 260.831L338.504 300.484C338.074 302.716 336.377 304.569 334.05 305.345L292.736 319.116C290.41 319.891 287.809 319.471 285.913 318.014L252.233 292.132C250.337 290.675 249.434 288.402 249.864 286.17L257.498 246.517C257.928 244.284 259.626 242.431 261.952 241.656L303.266 227.885Z" stroke="url(#paint17_linear_1851_151591)" stroke-opacity="0.5" stroke-width="5"/>
<path opacity="0.86" d="M300.82 236.895C302.656 236.216 304.748 236.485 306.309 237.602L334.025 257.433C335.585 258.549 336.377 260.344 336.101 262.14L331.206 294.038C330.931 295.834 329.63 297.359 327.794 298.038L295.182 310.105C293.346 310.784 291.254 310.515 289.693 309.398L261.977 289.567C260.417 288.45 259.625 286.656 259.901 284.86L264.796 252.962C265.071 251.166 266.372 249.641 268.208 248.961L300.82 236.895Z" stroke="url(#paint18_linear_1851_151591)" stroke-opacity="0.5" stroke-width="5"/>
<path opacity="0.91" d="M299.067 245.995C300.424 245.442 302 245.594 303.201 246.393L324.543 260.593C325.744 261.393 326.389 262.719 326.234 264.071L323.476 288.098C323.321 289.45 322.389 290.625 321.033 291.178L296.934 301.004C295.577 301.557 294.001 301.406 292.799 300.606L271.458 286.406C270.257 285.607 269.612 284.281 269.767 282.928L272.525 258.902C272.68 257.549 273.611 256.375 274.968 255.821L299.067 245.995Z" stroke="url(#paint19_linear_1851_151591)" stroke-opacity="0.5" stroke-width="5"/>
<path opacity="0.95" d="M298.011 255.152C298.901 254.755 299.955 254.822 300.776 255.329L315.356 264.336C316.177 264.843 316.64 265.712 316.571 266.617L315.344 282.683C315.275 283.588 314.684 284.39 313.794 284.788L297.988 291.848C297.098 292.245 296.044 292.178 295.223 291.671L280.643 282.665C279.823 282.158 279.359 281.288 279.428 280.383L280.655 264.317C280.724 263.412 281.315 262.61 282.205 262.212L298.011 255.152Z" stroke="url(#paint20_linear_1851_151591)" stroke-opacity="0.5" stroke-width="5"/>
<path d="M297.656 264.332C298.093 264.119 298.621 264.136 299.041 264.376L306.498 268.644C306.917 268.884 307.165 269.311 307.148 269.764L306.841 277.812C306.824 278.265 306.544 278.676 306.107 278.888L298.343 282.669C297.906 282.882 297.378 282.865 296.958 282.625L289.501 278.357C289.081 278.117 288.833 277.69 288.851 277.237L289.158 269.189C289.175 268.736 289.455 268.325 289.892 268.112L297.656 264.332Z" stroke="url(#paint21_linear_1851_151591)" stroke-opacity="0.5" stroke-width="5"/>
<defs>
<linearGradient id="paint0_linear_1851_151591" x1="14555.3" y1="12597.5" x2="-13740.9" y2="44592.4" gradientUnits="userSpaceOnUse">
<stop stop-color="#1DB8C3"/>
<stop offset="1" stop-color="#F570AE"/>
</linearGradient>
<linearGradient id="paint1_linear_1851_151591" x1="14347.2" y1="11595.2" x2="-11512.7" y2="42955.5" gradientUnits="userSpaceOnUse">
<stop stop-color="#1DB8C3"/>
<stop offset="1" stop-color="#F570AE"/>
</linearGradient>
<linearGradient id="paint2_linear_1851_151591" x1="14081" y1="10621.9" x2="-9436.68" y2="41225.3" gradientUnits="userSpaceOnUse">
<stop stop-color="#1DB8C3"/>
<stop offset="1" stop-color="#F570AE"/>
</linearGradient>
<linearGradient id="paint3_linear_1851_151591" x1="13758.5" y1="9679.95" x2="-7514.98" y2="39411.5" gradientUnits="userSpaceOnUse">
<stop stop-color="#1DB8C3"/>
<stop offset="1" stop-color="#F570AE"/>
</linearGradient>
<linearGradient id="paint4_linear_1851_151591" x1="13381.9" y1="8771.87" x2="-5749.17" y2="37523.8" gradientUnits="userSpaceOnUse">
<stop stop-color="#1DB8C3"/>
<stop offset="1" stop-color="#F570AE"/>
</linearGradient>
<linearGradient id="paint5_linear_1851_151591" x1="12953.3" y1="7899.9" x2="-4140.23" y2="35571.5" gradientUnits="userSpaceOnUse">
<stop stop-color="#1DB8C3"/>
<stop offset="1" stop-color="#F570AE"/>
</linearGradient>
<linearGradient id="paint6_linear_1851_151591" x1="12475.1" y1="7066.22" x2="-2688.58" y2="33563.8" gradientUnits="userSpaceOnUse">
<stop stop-color="#1DB8C3"/>
<stop offset="1" stop-color="#F570AE"/>
</linearGradient>
<linearGradient id="paint7_linear_1851_151591" x1="11949.8" y1="6272.92" x2="-1394.1" y2="31509.6" gradientUnits="userSpaceOnUse">
<stop stop-color="#1DB8C3"/>
<stop offset="1" stop-color="#F570AE"/>
</linearGradient>
<linearGradient id="paint8_linear_1851_151591" x1="11379.8" y1="5521.96" x2="-256.248" y2="29417.6" gradientUnits="userSpaceOnUse">
<stop stop-color="#1DB8C3"/>
<stop offset="1" stop-color="#F570AE"/>
</linearGradient>
<linearGradient id="paint9_linear_1851_151591" x1="10767.7" y1="4815.21" x2="725.974" y2="27296.1" gradientUnits="userSpaceOnUse">
<stop stop-color="#1DB8C3"/>
<stop offset="1" stop-color="#F570AE"/>
</linearGradient>
<linearGradient id="paint10_linear_1851_151591" x1="10116.2" y1="4154.41" x2="1553.93" y2="25153.2" gradientUnits="userSpaceOnUse">
<stop stop-color="#1DB8C3"/>
<stop offset="1" stop-color="#F570AE"/>
</linearGradient>
<linearGradient id="paint11_linear_1851_151591" x1="9428.07" y1="3541.17" x2="2229.3" y2="22996.5" gradientUnits="userSpaceOnUse">
<stop stop-color="#1DB8C3"/>
<stop offset="1" stop-color="#F570AE"/>
</linearGradient>
<linearGradient id="paint12_linear_1851_151591" x1="8706.21" y1="2977.02" x2="2754.09" y2="20833.5" gradientUnits="userSpaceOnUse">
<stop stop-color="#1DB8C3"/>
<stop offset="1" stop-color="#F570AE"/>
</linearGradient>
<linearGradient id="paint13_linear_1851_151591" x1="7953.5" y1="2463.32" x2="3130.54" y2="18671.2" gradientUnits="userSpaceOnUse">
<stop stop-color="#1DB8C3"/>
<stop offset="1" stop-color="#F570AE"/>
</linearGradient>
<linearGradient id="paint14_linear_1851_151591" x1="7172.92" y1="2001.33" x2="3361.12" y2="16516.6" gradientUnits="userSpaceOnUse">
<stop stop-color="#1DB8C3"/>
<stop offset="1" stop-color="#F570AE"/>
</linearGradient>
<linearGradient id="paint15_linear_1851_151591" x1="6367.51" y1="1592.16" x2="3448.46" y2="14375.9" gradientUnits="userSpaceOnUse">
<stop stop-color="#1DB8C3"/>
<stop offset="1" stop-color="#F570AE"/>
</linearGradient>
<linearGradient id="paint16_linear_1851_151591" x1="5540.34" y1="1236.81" x2="3395.39" y2="12255.6" gradientUnits="userSpaceOnUse">
<stop stop-color="#1DB8C3"/>
<stop offset="1" stop-color="#F570AE"/>
</linearGradient>
<linearGradient id="paint17_linear_1851_151591" x1="4694.54" y1="936.142" x2="3204.82" y2="10161.4" gradientUnits="userSpaceOnUse">
<stop stop-color="#1DB8C3"/>
<stop offset="1" stop-color="#F570AE"/>
</linearGradient>
<linearGradient id="paint18_linear_1851_151591" x1="3833.29" y1="690.874" x2="2879.79" y2="8099.02" gradientUnits="userSpaceOnUse">
<stop stop-color="#1DB8C3"/>
<stop offset="1" stop-color="#F570AE"/>
</linearGradient>
<linearGradient id="paint19_linear_1851_151591" x1="2959.78" y1="501.594" x2="2423.41" y2="6073.96" gradientUnits="userSpaceOnUse">
<stop stop-color="#1DB8C3"/>
<stop offset="1" stop-color="#F570AE"/>
</linearGradient>
<linearGradient id="paint20_linear_1851_151591" x1="2077.24" y1="368.754" x2="1838.84" y2="4091.38" gradientUnits="userSpaceOnUse">
<stop stop-color="#1DB8C3"/>
<stop offset="1" stop-color="#F570AE"/>
</linearGradient>
<linearGradient id="paint21_linear_1851_151591" x1="1188.89" y1="292.665" x2="1129.29" y2="2156.29" gradientUnits="userSpaceOnUse">
<stop stop-color="#1DB8C3"/>
<stop offset="1" stop-color="#F570AE"/>
</linearGradient>
</defs>
</svg>
