<svg width="596" height="544" viewBox="0 0 596 544" fill="none" xmlns="http://www.w3.org/2000/svg">
<path opacity="0.05" d="M439.756 118.315C450.324 120.716 458.684 128.069 461.686 137.605L515.007 306.972C518.01 316.507 515.198 326.778 507.633 333.914L373.252 460.655C365.687 467.791 354.515 470.709 343.946 468.309L156.244 425.685C145.677 423.284 137.317 415.931 134.315 406.395L80.9933 237.028C77.9905 227.493 80.8024 217.222 88.3682 210.086L222.748 83.3448C230.314 76.209 241.486 73.291 252.055 75.6906L439.756 118.315Z" stroke="url(#paint0_linear_1851_151542)" stroke-opacity="0.5" stroke-width="5"/>
<path opacity="0.1" d="M427.609 121.089C437.778 123.059 446.022 129.819 449.234 138.826L506.296 298.777C509.509 307.782 507.203 317.666 500.246 324.703L376.688 449.687C369.731 456.724 359.181 459.846 349.011 457.878L168.391 422.911C158.222 420.941 149.978 414.18 146.766 405.174L89.704 245.223C86.4906 236.217 88.7975 226.334 95.754 219.297L219.312 94.3129C226.269 87.2761 236.819 84.1535 246.989 86.1219L427.609 121.089Z" stroke="url(#paint1_linear_1851_151542)" stroke-opacity="0.5" stroke-width="5"/>
<path opacity="0.14" d="M415.855 124.44C425.605 126.006 433.699 132.192 437.085 140.667L497.233 291.181C500.62 299.655 498.785 309.132 492.421 316.04L379.379 438.741C373.015 445.649 363.087 448.941 353.335 447.375L180.145 419.561C170.394 417.994 162.301 411.809 158.915 403.334L98.7663 252.819C95.3792 244.345 97.2142 234.868 103.579 227.96L216.62 105.26C222.985 98.3514 232.913 95.0599 242.665 96.6256L415.855 124.44Z" stroke="url(#paint2_linear_1851_151542)" stroke-opacity="0.5" stroke-width="5"/>
<path opacity="0.19" d="M404.522 128.345C413.837 129.537 421.746 135.166 425.27 143.11L487.855 284.195C491.379 292.138 489.982 301.191 484.191 307.942L381.333 427.85C375.542 434.601 366.236 438.026 356.92 436.834L191.478 415.656C182.163 414.463 174.254 408.835 170.73 400.891L108.145 259.806C104.621 251.863 106.018 242.81 111.809 236.059L214.667 116.151C220.458 109.4 229.764 105.975 239.08 107.167L404.522 128.345Z" stroke="url(#paint3_linear_1851_151542)" stroke-opacity="0.5" stroke-width="5"/>
<path opacity="0.23" d="M393.639 132.78C402.501 133.629 410.194 138.719 413.818 146.135L478.195 277.829C481.82 285.243 480.826 293.856 475.588 300.422L382.556 417.048C377.318 423.614 368.631 427.137 359.768 426.289L202.36 411.22C193.497 410.371 185.805 405.28 182.18 397.865L117.804 266.171C114.179 258.757 115.173 250.144 120.411 243.578L213.443 126.952C218.68 120.386 227.367 116.863 236.23 117.711L393.639 132.78Z" stroke="url(#paint4_linear_1851_151542)" stroke-opacity="0.5" stroke-width="5"/>
<path opacity="0.28" d="M383.233 137.724C391.628 138.259 399.073 142.833 402.762 149.723L468.291 272.092C471.981 278.982 471.355 287.141 466.648 293.496L383.059 406.368C378.353 412.723 370.281 416.309 361.885 415.774L212.766 406.277C204.371 405.742 196.926 401.168 193.237 394.278L127.708 271.909C124.018 265.019 124.644 256.86 129.351 250.505L212.94 137.633C217.646 131.278 225.718 127.692 234.114 128.227L383.233 137.724Z" stroke="url(#paint5_linear_1851_151542)" stroke-opacity="0.5" stroke-width="5"/>
<path opacity="0.32" d="M373.327 143.149C381.244 143.402 388.411 147.481 392.13 153.852L458.18 266.992C461.899 273.362 461.604 281.056 457.406 287.174L382.852 395.842C378.655 401.96 371.192 405.575 363.275 405.323L222.671 400.851C214.755 400.599 207.587 396.519 203.869 390.149L137.819 277.008C134.1 270.639 134.395 262.945 138.592 256.827L213.146 148.158C217.344 142.04 224.807 138.426 232.724 138.677L373.327 143.149Z" stroke="url(#paint6_linear_1851_151542)" stroke-opacity="0.5" stroke-width="5"/>
<path opacity="0.37" d="M363.948 149.031C371.374 149.032 378.236 152.64 381.949 158.498L447.897 262.534C451.611 268.391 451.611 275.609 447.898 281.466L381.95 385.502C378.237 391.36 371.374 394.969 363.948 394.969L232.051 394.969C224.625 394.968 217.763 391.36 214.05 385.502L148.102 281.466C144.388 275.608 144.389 268.391 148.102 262.534L214.05 158.498C217.763 152.64 224.625 149.031 232.052 149.031L363.948 149.031Z" stroke="url(#paint7_linear_1851_151542)" stroke-opacity="0.5" stroke-width="5"/>
<path opacity="0.41" d="M355.117 155.343C362.044 155.123 368.574 158.286 372.246 163.639L437.481 258.724C441.155 264.077 441.413 270.81 438.159 276.383L380.365 375.381C377.111 380.955 370.839 384.525 363.912 384.745L240.884 388.658C233.957 388.878 227.427 385.716 223.755 380.362L158.52 285.277C154.847 279.924 154.589 273.192 157.842 267.618L215.636 168.62C218.89 163.046 225.162 159.477 232.089 159.256L355.117 155.343Z" stroke="url(#paint8_linear_1851_151542)" stroke-opacity="0.5" stroke-width="5"/>
<path opacity="0.46" d="M346.854 162.056C353.274 161.647 359.446 164.389 363.045 169.249L426.966 255.563C430.566 260.422 431.045 266.662 428.223 271.931L378.113 365.507C375.292 370.775 369.598 374.273 363.178 374.682L249.146 381.945C242.726 382.353 236.554 379.612 232.955 374.752L169.033 288.438C165.434 283.578 164.955 277.339 167.776 272.07L217.887 178.494C220.708 173.225 226.401 169.727 232.822 169.318L346.854 162.056Z" stroke="url(#paint9_linear_1851_151542)" stroke-opacity="0.5" stroke-width="5"/>
<path opacity="0.5" d="M339.18 169.141C345.088 168.576 350.879 170.924 354.371 175.302L416.392 253.053C419.885 257.43 420.547 263.172 418.131 268.115L375.213 355.911C372.797 360.854 367.668 364.248 361.76 364.814L256.821 374.859C250.912 375.424 245.121 373.076 241.63 368.698L179.608 290.948C176.116 286.571 175.453 280.829 177.87 275.886L220.787 188.09C223.204 183.147 228.332 179.753 234.241 179.187L339.18 169.141Z" stroke="url(#paint10_linear_1851_151542)" stroke-opacity="0.5" stroke-width="5"/>
<path opacity="0.55" d="M332.112 176.57C337.505 175.88 342.893 177.862 346.246 181.771L405.795 251.192C409.148 255.1 409.956 260.341 407.916 264.94L371.683 346.621C369.643 351.22 365.064 354.478 359.671 355.169L263.888 367.429C258.496 368.119 253.108 366.137 249.755 362.228L190.206 292.807C186.853 288.899 186.044 283.658 188.084 279.059L224.318 197.378C226.358 192.779 230.937 189.521 236.33 188.83L332.112 176.57Z" stroke="url(#paint11_linear_1851_151542)" stroke-opacity="0.5" stroke-width="5"/>
<path opacity="0.59" d="M325.668 184.313C330.543 183.53 335.507 185.176 338.689 188.63L395.21 249.981C398.393 253.435 399.31 258.173 397.617 262.41L367.543 337.667C365.849 341.904 361.803 344.997 356.927 345.781L270.332 359.688C265.456 360.47 260.492 358.825 257.31 355.37L200.789 294.02C197.607 290.566 196.689 285.827 198.383 281.59L228.457 206.333C230.15 202.096 234.197 199.003 239.072 198.22L325.668 184.313Z" stroke="url(#paint12_linear_1851_151542)" stroke-opacity="0.5" stroke-width="5"/>
<path opacity="0.64" d="M319.862 192.338C324.22 191.495 328.742 192.833 331.723 195.849L384.677 249.414C387.659 252.429 388.647 256.665 387.27 260.525L362.815 329.075C361.438 332.935 357.905 335.832 353.547 336.676L276.138 351.662C271.78 352.506 267.258 351.168 264.277 348.151L211.323 294.587C208.342 291.571 207.353 287.335 208.73 283.476L233.185 214.925C234.562 211.066 238.095 208.168 242.454 207.324L319.862 192.338Z" stroke="url(#paint13_linear_1851_151542)" stroke-opacity="0.5" stroke-width="5"/>
<path opacity="0.68" d="M314.708 200.615C318.551 199.743 322.613 200.804 325.364 203.399L374.23 249.487C376.981 252.081 378.004 255.816 376.912 259.284L357.522 320.871C356.431 324.339 353.391 327.013 349.548 327.886L281.293 343.386C277.45 344.258 273.387 343.197 270.636 340.602L221.77 294.514C219.019 291.919 217.997 288.184 219.088 284.717L238.478 223.129C239.57 219.662 242.61 216.988 246.453 216.115L314.708 200.615Z" stroke="url(#paint14_linear_1851_151542)" stroke-opacity="0.5" stroke-width="5"/>
<path opacity="0.73" d="M310.216 209.112C313.547 208.242 317.135 209.057 319.628 211.25L363.905 250.193C366.398 252.385 367.417 255.623 366.579 258.685L351.688 313.081C350.85 316.144 348.281 318.566 344.95 319.437L285.782 334.889C282.451 335.759 278.863 334.944 276.37 332.751L232.094 293.808C229.601 291.616 228.581 288.378 229.42 285.316L244.31 230.92C245.149 227.857 247.718 225.434 251.049 224.564L310.216 209.112Z" stroke="url(#paint15_linear_1851_151542)" stroke-opacity="0.5" stroke-width="5"/>
<path opacity="0.77" d="M306.399 217.796C309.224 216.96 312.324 217.56 314.532 219.371L353.739 251.524C355.946 253.334 356.926 256.08 356.308 258.726L345.339 305.728C344.722 308.375 342.601 310.52 339.776 311.356L289.599 326.205C286.774 327.041 283.674 326.441 281.466 324.63L242.259 292.477C240.052 290.667 239.072 287.921 239.69 285.275L250.659 238.273C251.276 235.626 253.397 233.481 256.222 232.645L306.399 217.796Z" stroke="url(#paint16_linear_1851_151542)" stroke-opacity="0.5" stroke-width="5"/>
<path opacity="0.82" d="M303.264 226.634C305.59 225.863 308.191 226.281 310.087 227.73L343.767 253.47C345.663 254.919 346.567 257.18 346.137 259.4L338.502 298.835C338.072 301.055 336.375 302.898 334.049 303.67L292.734 317.365C290.408 318.136 287.807 317.718 285.911 316.269L252.231 290.53C250.335 289.081 249.432 286.82 249.862 284.6L257.496 245.164C257.926 242.944 259.624 241.101 261.95 240.33L303.264 226.634Z" stroke="url(#paint17_linear_1851_151542)" stroke-opacity="0.5" stroke-width="5"/>
<path opacity="0.86" d="M300.819 235.596C302.655 234.92 304.747 235.188 306.308 236.299L334.024 256.021C335.585 257.132 336.376 258.916 336.1 260.702L331.205 292.425C330.93 294.211 329.629 295.728 327.793 296.404L295.181 308.404C293.345 309.08 291.253 308.812 289.692 307.701L261.976 287.979C260.416 286.868 259.624 285.084 259.9 283.298L264.795 251.575C265.07 249.789 266.371 248.272 268.207 247.596L300.819 235.596Z" stroke="url(#paint18_linear_1851_151542)" stroke-opacity="0.5" stroke-width="5"/>
<path opacity="0.91" d="M299.066 244.646C300.423 244.096 301.999 244.247 303.2 245.042L324.542 259.164C325.743 259.959 326.388 261.278 326.233 262.623L323.475 286.518C323.32 287.863 322.389 289.031 321.032 289.581L296.933 299.354C295.576 299.904 294 299.753 292.799 298.958L271.457 284.835C270.256 284.04 269.611 282.722 269.766 281.376L272.524 257.482C272.679 256.137 273.61 254.969 274.967 254.419L299.066 244.646Z" stroke="url(#paint19_linear_1851_151542)" stroke-opacity="0.5" stroke-width="5"/>
<path opacity="0.95" d="M298.011 253.753C298.901 253.358 299.955 253.425 300.776 253.929L315.356 262.886C316.177 263.39 316.64 264.255 316.571 265.155L315.344 281.133C315.275 282.033 314.684 282.83 313.794 283.226L297.988 290.247C297.098 290.643 296.044 290.576 295.223 290.071L280.643 281.114C279.823 280.61 279.359 279.745 279.428 278.846L280.655 262.867C280.724 261.968 281.315 261.17 282.205 260.774L298.011 253.753Z" stroke="url(#paint20_linear_1851_151542)" stroke-opacity="0.5" stroke-width="5"/>
<path d="M297.656 262.882C298.093 262.67 298.621 262.687 299.041 262.926L306.498 267.17C306.918 267.409 307.166 267.834 307.148 268.284L306.841 276.288C306.824 276.739 306.544 277.147 306.107 277.358L298.343 281.118C297.906 281.33 297.378 281.313 296.958 281.074L289.501 276.83C289.081 276.591 288.833 276.166 288.851 275.716L289.158 267.712C289.175 267.261 289.455 266.853 289.892 266.642L297.656 262.882Z" stroke="url(#paint21_linear_1851_151542)" stroke-opacity="0.5" stroke-width="5"/>
<defs>
<linearGradient id="paint0_linear_1851_151542" x1="14555.3" y1="12528.4" x2="-13566.3" y2="44501.3" gradientUnits="userSpaceOnUse">
<stop stop-color="#1DB8C3"/>
<stop offset="1" stop-color="#F570AE"/>
</linearGradient>
<linearGradient id="paint1_linear_1851_151542" x1="14347.3" y1="11531.6" x2="-11343.6" y2="42858.6" gradientUnits="userSpaceOnUse">
<stop stop-color="#1DB8C3"/>
<stop offset="1" stop-color="#F570AE"/>
</linearGradient>
<linearGradient id="paint2_linear_1851_151542" x1="14081" y1="10563.6" x2="-9274.25" y2="41123.3" gradientUnits="userSpaceOnUse">
<stop stop-color="#1DB8C3"/>
<stop offset="1" stop-color="#F570AE"/>
</linearGradient>
<linearGradient id="paint3_linear_1851_151542" x1="13758.5" y1="9626.86" x2="-7360.46" y2="39305.3" gradientUnits="userSpaceOnUse">
<stop stop-color="#1DB8C3"/>
<stop offset="1" stop-color="#F570AE"/>
</linearGradient>
<linearGradient id="paint4_linear_1851_151542" x1="13381.9" y1="8723.76" x2="-5603.59" y2="37414.3" gradientUnits="userSpaceOnUse">
<stop stop-color="#1DB8C3"/>
<stop offset="1" stop-color="#F570AE"/>
</linearGradient>
<linearGradient id="paint5_linear_1851_151542" x1="12953.3" y1="7856.57" x2="-4004.45" y2="35459.8" gradientUnits="userSpaceOnUse">
<stop stop-color="#1DB8C3"/>
<stop offset="1" stop-color="#F570AE"/>
</linearGradient>
<linearGradient id="paint6_linear_1851_151542" x1="12475.2" y1="7027.47" x2="-2563.25" y2="33451" gradientUnits="userSpaceOnUse">
<stop stop-color="#1DB8C3"/>
<stop offset="1" stop-color="#F570AE"/>
</linearGradient>
<linearGradient id="paint7_linear_1851_151542" x1="11949.8" y1="6238.51" x2="-1279.72" y2="31397" gradientUnits="userSpaceOnUse">
<stop stop-color="#1DB8C3"/>
<stop offset="1" stop-color="#F570AE"/>
</linearGradient>
<linearGradient id="paint8_linear_1851_151542" x1="11379.8" y1="5491.68" x2="-153.111" y2="29306.2" gradientUnits="userSpaceOnUse">
<stop stop-color="#1DB8C3"/>
<stop offset="1" stop-color="#F570AE"/>
</linearGradient>
<linearGradient id="paint9_linear_1851_151542" x1="10767.7" y1="4788.8" x2="817.745" y2="27187.2" gradientUnits="userSpaceOnUse">
<stop stop-color="#1DB8C3"/>
<stop offset="1" stop-color="#F570AE"/>
</linearGradient>
<linearGradient id="paint10_linear_1851_151542" x1="10116.2" y1="4131.62" x2="1634.39" y2="25047.8" gradientUnits="userSpaceOnUse">
<stop stop-color="#1DB8C3"/>
<stop offset="1" stop-color="#F570AE"/>
</linearGradient>
<linearGradient id="paint11_linear_1851_151542" x1="9428.09" y1="3521.75" x2="2298.68" y2="22895.9" gradientUnits="userSpaceOnUse">
<stop stop-color="#1DB8C3"/>
<stop offset="1" stop-color="#F570AE"/>
</linearGradient>
<linearGradient id="paint12_linear_1851_151542" x1="8706.23" y1="2960.69" x2="2812.78" y2="20738.7" gradientUnits="userSpaceOnUse">
<stop stop-color="#1DB8C3"/>
<stop offset="1" stop-color="#F570AE"/>
</linearGradient>
<linearGradient id="paint13_linear_1851_151542" x1="7953.52" y1="2449.81" x2="3179.07" y2="18583.2" gradientUnits="userSpaceOnUse">
<stop stop-color="#1DB8C3"/>
<stop offset="1" stop-color="#F570AE"/>
</linearGradient>
<linearGradient id="paint14_linear_1851_151542" x1="7172.93" y1="1990.35" x2="3400.17" y2="16436.2" gradientUnits="userSpaceOnUse">
<stop stop-color="#1DB8C3"/>
<stop offset="1" stop-color="#F570AE"/>
</linearGradient>
<linearGradient id="paint15_linear_1851_151542" x1="6367.51" y1="1583.43" x2="3478.84" y2="14304" gradientUnits="userSpaceOnUse">
<stop stop-color="#1DB8C3"/>
<stop offset="1" stop-color="#F570AE"/>
</linearGradient>
<linearGradient id="paint16_linear_1851_151542" x1="5540.34" y1="1230.03" x2="3418.01" y2="12192.7" gradientUnits="userSpaceOnUse">
<stop stop-color="#1DB8C3"/>
<stop offset="1" stop-color="#F570AE"/>
</linearGradient>
<linearGradient id="paint17_linear_1851_151542" x1="4694.55" y1="931.008" x2="3220.71" y2="10108.2" gradientUnits="userSpaceOnUse">
<stop stop-color="#1DB8C3"/>
<stop offset="1" stop-color="#F570AE"/>
</linearGradient>
<linearGradient id="paint18_linear_1851_151542" x1="3833.3" y1="687.085" x2="2890.06" y2="8055.92" gradientUnits="userSpaceOnUse">
<stop stop-color="#1DB8C3"/>
<stop offset="1" stop-color="#F570AE"/>
</linearGradient>
<linearGradient id="paint19_linear_1851_151542" x1="2959.79" y1="498.843" x2="2429.23" y2="6041.2" gradientUnits="userSpaceOnUse">
<stop stop-color="#1DB8C3"/>
<stop offset="1" stop-color="#F570AE"/>
</linearGradient>
<linearGradient id="paint20_linear_1851_151542" x1="2077.24" y1="366.731" x2="1841.44" y2="4069.11" gradientUnits="userSpaceOnUse">
<stop stop-color="#1DB8C3"/>
<stop offset="1" stop-color="#F570AE"/>
</linearGradient>
<linearGradient id="paint21_linear_1851_151542" x1="1188.89" y1="291.059" x2="1129.94" y2="2144.49" gradientUnits="userSpaceOnUse">
<stop stop-color="#1DB8C3"/>
<stop offset="1" stop-color="#F570AE"/>
</linearGradient>
</defs>
</svg>
