<svg width="596" height="542" viewBox="0 0 596 542" fill="none" xmlns="http://www.w3.org/2000/svg">
<g opacity="0.4">
<path opacity="0.05" d="M439.756 117.88C450.324 120.272 458.684 127.598 461.686 137.099L515.007 305.843C518.01 315.343 515.198 325.576 507.633 332.686L373.252 458.962C365.687 466.071 354.515 468.978 343.946 466.588L156.244 424.12C145.677 421.728 137.317 414.402 134.315 404.901L80.9933 236.157C77.9904 226.657 80.8024 216.424 88.3682 209.314L222.748 83.0384C230.314 75.9289 241.486 73.0216 252.055 75.4123L439.756 117.88Z" stroke="url(#paint0_linear_1851_151616)" stroke-width="5"/>
<path opacity="0.1" d="M427.609 120.644C437.778 122.606 446.022 129.342 449.234 138.315L506.296 297.679C509.509 306.651 507.203 316.498 500.246 323.509L376.688 448.034C369.731 455.044 359.181 458.156 349.011 456.194L168.391 421.356C158.222 419.393 149.978 412.658 146.766 403.685L89.704 244.321C86.4906 235.349 88.7975 225.502 95.754 218.491L219.312 93.9661C226.269 86.9552 236.819 83.844 246.989 85.8052L427.609 120.644Z" stroke="url(#paint1_linear_1851_151616)" stroke-width="5"/>
<path opacity="0.14" d="M415.855 123.982C425.605 125.543 433.699 131.706 437.085 140.149L497.233 290.111C500.62 298.553 498.785 307.995 492.421 314.878L379.379 437.128C373.015 444.011 363.087 447.29 353.335 445.73L180.145 418.018C170.394 416.457 162.301 410.295 158.915 401.851L98.7663 251.89C95.3792 243.447 97.2142 234.005 103.579 227.122L216.62 104.873C222.985 97.9899 232.913 94.7104 242.665 96.2704L415.855 123.982Z" stroke="url(#paint2_linear_1851_151616)" stroke-width="5"/>
<path opacity="0.19" d="M404.522 127.873C413.837 129.061 421.746 134.669 425.27 142.583L487.855 283.15C491.379 291.064 489.982 300.084 484.191 306.81L381.333 426.277C375.542 433.003 366.236 436.415 356.92 435.228L191.478 414.128C182.163 412.94 174.254 407.332 170.73 399.417L108.145 258.851C104.621 250.937 106.018 241.917 111.809 235.191L214.667 115.724C220.458 108.998 229.764 105.585 239.08 106.773L404.522 127.873Z" stroke="url(#paint3_linear_1851_151616)" stroke-width="5"/>
<path opacity="0.23" d="M393.639 132.292C402.501 133.138 410.194 138.209 413.818 145.597L478.195 276.807C481.82 284.194 480.826 292.776 475.588 299.318L382.556 415.514C377.318 422.056 368.631 425.566 359.768 424.721L202.36 409.708C193.497 408.862 185.805 403.79 182.18 396.402L117.804 265.193C114.179 257.806 115.173 249.224 120.411 242.682L213.443 126.486C218.68 119.944 227.367 116.434 236.23 117.279L393.639 132.292Z" stroke="url(#paint4_linear_1851_151616)" stroke-width="5"/>
<path opacity="0.28" d="M383.233 137.217C391.628 137.751 399.073 142.308 402.762 149.172L468.291 271.092C471.981 277.956 471.355 286.085 466.648 292.417L383.059 404.874C378.353 411.205 370.281 414.778 361.885 414.246L212.766 404.783C204.371 404.25 196.926 399.693 193.237 392.828L127.708 270.909C124.018 264.045 124.644 255.915 129.351 249.584L212.94 137.127C217.646 130.795 225.718 127.223 234.114 127.755L383.233 137.217Z" stroke="url(#paint5_linear_1851_151616)" stroke-width="5"/>
<path opacity="0.32" d="M373.327 142.623C381.244 142.874 388.411 146.939 392.13 153.286L458.18 266.01C461.899 272.356 461.604 280.022 457.406 286.118L382.852 394.386C378.655 400.482 371.192 404.083 363.275 403.833L222.671 399.377C214.755 399.126 207.587 395.061 203.869 388.714L137.819 275.99C134.1 269.643 134.395 261.978 138.592 255.882L213.146 147.613C217.344 141.518 224.807 137.917 232.724 138.167L373.327 142.623Z" stroke="url(#paint6_linear_1851_151616)" stroke-width="5"/>
<path opacity="0.37" d="M363.948 148.483C371.374 148.483 378.236 152.079 381.949 157.915L447.897 261.569C451.611 267.404 451.611 274.595 447.898 280.431L381.95 384.085C378.237 389.921 371.374 393.516 363.948 393.516L232.051 393.516C224.625 393.516 217.763 389.921 214.05 384.084L148.102 280.43C144.388 274.595 144.389 267.404 148.102 261.568L214.05 157.914C217.763 152.079 224.625 148.483 232.052 148.483L363.948 148.483Z" stroke="url(#paint7_linear_1851_151616)" stroke-width="5"/>
<path opacity="0.41" d="M355.117 154.772C362.044 154.553 368.574 157.703 372.246 163.038L437.481 257.773C441.155 263.106 441.413 269.814 438.159 275.367L380.365 374.001C377.111 379.554 370.839 383.111 363.912 383.33L240.884 387.229C233.957 387.448 227.427 384.297 223.755 378.963L158.52 284.228C154.847 278.894 154.589 272.187 157.842 266.634L215.636 168C218.89 162.447 225.162 158.89 232.089 158.67L355.117 154.772Z" stroke="url(#paint8_linear_1851_151616)" stroke-width="5"/>
<path opacity="0.46" d="M346.854 161.46C353.274 161.053 359.446 163.785 363.045 168.627L426.966 254.624C430.566 259.465 431.045 265.682 428.223 270.931L378.113 364.163C375.292 369.413 369.598 372.898 363.178 373.305L249.146 380.541C242.726 380.948 236.554 378.216 232.955 373.374L169.033 287.378C165.434 282.536 164.955 276.319 167.776 271.07L217.887 177.838C220.708 172.589 226.401 169.104 232.822 168.696L346.854 161.46Z" stroke="url(#paint9_linear_1851_151616)" stroke-width="5"/>
<path opacity="0.5" d="M339.18 168.52C345.088 167.957 350.879 170.296 354.371 174.658L416.392 252.122C419.885 256.484 420.547 262.205 418.131 267.13L375.213 354.603C372.797 359.527 367.668 362.909 361.76 363.473L256.821 373.481C250.912 374.044 245.121 371.705 241.63 367.343L179.608 289.879C176.116 285.517 175.453 279.796 177.87 274.871L220.787 187.398C223.204 182.474 228.332 179.092 234.241 178.528L339.18 168.52Z" stroke="url(#paint10_linear_1851_151616)" stroke-width="5"/>
<path opacity="0.55" d="M332.112 175.92C337.505 175.233 342.893 177.208 346.246 181.103L405.795 250.268C409.148 254.162 409.957 259.384 407.917 263.966L371.683 345.346C369.643 349.928 365.064 353.175 359.671 353.863L263.888 366.078C258.496 366.766 253.108 364.791 249.755 360.896L190.206 291.731C186.853 287.837 186.044 282.615 188.084 278.033L224.318 196.652C226.358 192.071 230.937 188.824 236.33 188.136L332.112 175.92Z" stroke="url(#paint11_linear_1851_151616)" stroke-width="5"/>
<path opacity="0.59" d="M325.668 183.635C330.543 182.855 335.507 184.495 338.689 187.936L395.21 249.061C398.393 252.502 399.31 257.223 397.617 261.445L367.543 336.425C365.849 340.647 361.803 343.728 356.927 344.509L270.332 358.365C265.456 359.144 260.492 357.505 257.31 354.063L200.789 292.938C197.607 289.497 196.689 284.776 198.383 280.555L228.457 205.574C230.15 201.352 234.197 198.271 239.072 197.491L325.668 183.635Z" stroke="url(#paint12_linear_1851_151616)" stroke-width="5"/>
<path opacity="0.64" d="M319.862 191.631C324.22 190.79 328.742 192.123 331.723 195.128L384.677 248.496C387.659 251.501 388.647 255.721 387.27 259.566L362.815 327.865C361.438 331.71 357.905 334.597 353.547 335.438L276.138 350.369C271.78 351.209 267.258 349.876 264.277 346.871L211.323 293.503C208.342 290.499 207.353 286.279 208.73 282.433L233.185 214.135C234.562 210.289 238.095 207.402 242.454 206.561L319.862 191.631Z" stroke="url(#paint13_linear_1851_151616)" stroke-width="5"/>
<path opacity="0.68" d="M314.708 199.878C318.551 199.008 322.613 200.065 325.364 202.651L374.23 248.569C376.981 251.155 378.004 254.876 376.912 258.33L357.523 319.692C356.431 323.146 353.391 325.811 349.548 326.68L281.293 342.123C277.45 342.992 273.387 341.935 270.636 339.35L221.77 293.431C219.019 290.846 217.997 287.125 219.088 283.67L238.478 222.309C239.57 218.854 242.61 216.19 246.453 215.32L314.708 199.878Z" stroke="url(#paint14_linear_1851_151616)" stroke-width="5"/>
<path opacity="0.73" d="M310.216 208.342C313.548 207.476 317.135 208.287 319.628 210.472L363.905 249.272C366.398 251.456 367.417 254.682 366.579 257.734L351.688 311.929C350.85 314.981 348.281 317.394 344.95 318.261L285.782 333.657C282.451 334.524 278.863 333.712 276.37 331.527L232.094 292.727C229.601 290.543 228.581 287.317 229.42 284.266L244.31 230.07C245.149 227.019 247.718 224.605 251.049 223.738L310.216 208.342Z" stroke="url(#paint15_linear_1851_151616)" stroke-width="5"/>
<path opacity="0.77" d="M306.399 216.994C309.224 216.162 312.324 216.76 314.532 218.563L353.739 250.598C355.946 252.402 356.926 255.137 356.308 257.774L345.339 304.603C344.722 307.24 342.601 309.378 339.776 310.211L289.599 325.005C286.774 325.838 283.674 325.24 281.466 323.436L242.259 291.401C240.052 289.597 239.072 286.862 239.69 284.225L250.659 237.396C251.276 234.759 253.397 232.622 256.222 231.789L306.399 216.994Z" stroke="url(#paint16_linear_1851_151616)" stroke-width="5"/>
<path opacity="0.82" d="M303.264 225.801C305.59 225.033 308.191 225.449 310.087 226.893L343.767 252.538C345.663 253.982 346.567 256.234 346.137 258.447L338.502 297.737C338.072 299.949 336.375 301.785 334.049 302.553L292.734 316.199C290.408 316.967 287.807 316.551 285.911 315.107L252.231 289.462C250.335 288.018 249.432 285.766 249.862 283.554L257.496 244.263C257.926 242.051 259.624 240.215 261.95 239.447L303.264 225.801Z" stroke="url(#paint17_linear_1851_151616)" stroke-width="5"/>
<path opacity="0.86" d="M300.819 234.73C302.655 234.057 304.747 234.324 306.308 235.43L334.024 255.08C335.584 256.186 336.376 257.964 336.1 259.744L331.205 291.35C330.93 293.13 329.629 294.641 327.793 295.314L295.181 307.27C293.345 307.944 291.253 307.677 289.692 306.57L261.976 286.92C260.416 285.814 259.624 284.036 259.9 282.256L264.795 250.65C265.07 248.871 266.371 247.359 268.207 246.686L300.819 234.73Z" stroke="url(#paint18_linear_1851_151616)" stroke-width="5"/>
<path opacity="0.91" d="M299.066 243.747C300.423 243.199 301.999 243.349 303.2 244.142L324.542 258.212C325.743 259.004 326.388 260.318 326.233 261.658L323.475 285.465C323.32 286.805 322.389 287.969 321.032 288.517L296.933 298.253C295.576 298.801 294 298.651 292.799 297.859L271.457 283.788C270.256 282.996 269.611 281.683 269.766 280.342L272.524 256.536C272.679 255.195 273.61 254.032 274.967 253.483L299.066 243.747Z" stroke="url(#paint19_linear_1851_151616)" stroke-width="5"/>
<path opacity="0.95" d="M298.011 252.819C298.901 252.426 299.955 252.493 300.776 252.995L315.356 261.919C316.177 262.421 316.64 263.283 316.571 264.179L315.344 280.099C315.275 280.995 314.684 281.79 313.794 282.184L297.988 289.18C297.098 289.574 296.044 289.507 295.223 289.004L280.643 280.08C279.823 279.578 279.359 278.716 279.428 277.82L280.655 261.9C280.724 261.004 281.315 260.209 282.205 259.815L298.011 252.819Z" stroke="url(#paint20_linear_1851_151616)" stroke-width="5"/>
<path d="M297.656 261.915C298.093 261.704 298.621 261.721 299.041 261.959L306.498 266.188C306.918 266.426 307.166 266.849 307.148 267.298L306.841 275.272C306.824 275.721 306.544 276.128 306.107 276.339L298.343 280.085C297.906 280.296 297.378 280.279 296.958 280.041L289.501 275.813C289.081 275.574 288.833 275.151 288.851 274.702L289.158 266.728C289.175 266.279 289.455 265.872 289.892 265.661L297.656 261.915Z" stroke="url(#paint21_linear_1851_151616)" stroke-width="5"/>
</g>
<defs>
<linearGradient id="paint0_linear_1851_151616" x1="14555.3" y1="12482.4" x2="-13449.6" y2="44440" gradientUnits="userSpaceOnUse">
<stop stop-color="#57E141"/>
<stop offset="1" stop-color="#61CA61"/>
</linearGradient>
<linearGradient id="paint1_linear_1851_151616" x1="14347.3" y1="11489.2" x2="-11230.5" y2="42793.4" gradientUnits="userSpaceOnUse">
<stop stop-color="#57E141"/>
<stop offset="1" stop-color="#61CA61"/>
</linearGradient>
<linearGradient id="paint2_linear_1851_151616" x1="14081" y1="10524.8" x2="-9165.75" y2="41054.8" gradientUnits="userSpaceOnUse">
<stop stop-color="#57E141"/>
<stop offset="1" stop-color="#61CA61"/>
</linearGradient>
<linearGradient id="paint3_linear_1851_151616" x1="13758.5" y1="9591.46" x2="-7257.3" y2="39233.9" gradientUnits="userSpaceOnUse">
<stop stop-color="#57E141"/>
<stop offset="1" stop-color="#61CA61"/>
</linearGradient>
<linearGradient id="paint4_linear_1851_151616" x1="13381.9" y1="8691.68" x2="-5506.47" y2="37340.8" gradientUnits="userSpaceOnUse">
<stop stop-color="#57E141"/>
<stop offset="1" stop-color="#61CA61"/>
</linearGradient>
<linearGradient id="paint5_linear_1851_151616" x1="12953.3" y1="7827.68" x2="-3913.91" y2="35384.8" gradientUnits="userSpaceOnUse">
<stop stop-color="#57E141"/>
<stop offset="1" stop-color="#61CA61"/>
</linearGradient>
<linearGradient id="paint6_linear_1851_151616" x1="12475.2" y1="7001.63" x2="-2479.73" y2="33375.4" gradientUnits="userSpaceOnUse">
<stop stop-color="#57E141"/>
<stop offset="1" stop-color="#61CA61"/>
</linearGradient>
<linearGradient id="paint7_linear_1851_151616" x1="11949.8" y1="6215.58" x2="-1203.54" y2="31321.4" gradientUnits="userSpaceOnUse">
<stop stop-color="#57E141"/>
<stop offset="1" stop-color="#61CA61"/>
</linearGradient>
<linearGradient id="paint8_linear_1851_151616" x1="11379.8" y1="5471.49" x2="-84.4506" y2="29231.6" gradientUnits="userSpaceOnUse">
<stop stop-color="#57E141"/>
<stop offset="1" stop-color="#61CA61"/>
</linearGradient>
<linearGradient id="paint9_linear_1851_151616" x1="10767.7" y1="4771.2" x2="878.809" y2="27114.3" gradientUnits="userSpaceOnUse">
<stop stop-color="#57E141"/>
<stop offset="1" stop-color="#61CA61"/>
</linearGradient>
<linearGradient id="paint10_linear_1851_151616" x1="10116.2" y1="4116.43" x2="1687.91" y2="24977.4" gradientUnits="userSpaceOnUse">
<stop stop-color="#57E141"/>
<stop offset="1" stop-color="#61CA61"/>
</linearGradient>
<linearGradient id="paint11_linear_1851_151616" x1="9428.09" y1="3508.81" x2="2344.81" y2="22828.6" gradientUnits="userSpaceOnUse">
<stop stop-color="#57E141"/>
<stop offset="1" stop-color="#61CA61"/>
</linearGradient>
<linearGradient id="paint12_linear_1851_151616" x1="8706.23" y1="2949.81" x2="2851.78" y2="20675.3" gradientUnits="userSpaceOnUse">
<stop stop-color="#57E141"/>
<stop offset="1" stop-color="#61CA61"/>
</linearGradient>
<linearGradient id="paint13_linear_1851_151616" x1="7953.52" y1="2440.8" x2="3211.31" y2="18524.4" gradientUnits="userSpaceOnUse">
<stop stop-color="#57E141"/>
<stop offset="1" stop-color="#61CA61"/>
</linearGradient>
<linearGradient id="paint14_linear_1851_151616" x1="7172.94" y1="1983.03" x2="3426.1" y2="16382.5" gradientUnits="userSpaceOnUse">
<stop stop-color="#57E141"/>
<stop offset="1" stop-color="#61CA61"/>
</linearGradient>
<linearGradient id="paint15_linear_1851_151616" x1="6367.52" y1="1577.6" x2="3499.01" y2="14256" gradientUnits="userSpaceOnUse">
<stop stop-color="#57E141"/>
<stop offset="1" stop-color="#61CA61"/>
</linearGradient>
<linearGradient id="paint16_linear_1851_151616" x1="5540.34" y1="1225.51" x2="3433.03" y2="12150.8" gradientUnits="userSpaceOnUse">
<stop stop-color="#57E141"/>
<stop offset="1" stop-color="#61CA61"/>
</linearGradient>
<linearGradient id="paint17_linear_1851_151616" x1="4694.55" y1="927.585" x2="3231.26" y2="10072.7" gradientUnits="userSpaceOnUse">
<stop stop-color="#57E141"/>
<stop offset="1" stop-color="#61CA61"/>
</linearGradient>
<linearGradient id="paint18_linear_1851_151616" x1="3833.3" y1="684.559" x2="2896.87" y2="8027.17" gradientUnits="userSpaceOnUse">
<stop stop-color="#57E141"/>
<stop offset="1" stop-color="#61CA61"/>
</linearGradient>
<linearGradient id="paint19_linear_1851_151616" x1="2959.79" y1="497.01" x2="2433.08" y2="6019.36" gradientUnits="userSpaceOnUse">
<stop stop-color="#57E141"/>
<stop offset="1" stop-color="#61CA61"/>
</linearGradient>
<linearGradient id="paint20_linear_1851_151616" x1="2077.24" y1="365.383" x2="1843.16" y2="4054.26" gradientUnits="userSpaceOnUse">
<stop stop-color="#57E141"/>
<stop offset="1" stop-color="#61CA61"/>
</linearGradient>
<linearGradient id="paint21_linear_1851_151616" x1="1188.89" y1="289.989" x2="1130.37" y2="2136.61" gradientUnits="userSpaceOnUse">
<stop stop-color="#57E141"/>
<stop offset="1" stop-color="#61CA61"/>
</linearGradient>
</defs>
</svg>
