<svg width="24" height="24" viewBox="0 0 24 24" fill="none" xmlns="http://www.w3.org/2000/svg">
<path d="M18.905 14.707C18.6029 14.9998 18.464 15.4233 18.5329 15.8387L19.57 21.5787C19.6575 22.0652 19.4522 22.5575 19.045 22.8387C18.646 23.1303 18.1152 23.1653 17.68 22.932L12.5129 20.237C12.3332 20.1413 12.1337 20.09 11.9295 20.0842H11.6134C11.5037 20.1005 11.3964 20.1355 11.2984 20.1892L6.13003 22.897C5.87453 23.0253 5.5852 23.0708 5.3017 23.0253C4.61103 22.8947 4.1502 22.2367 4.26336 21.5425L5.3017 15.8025C5.37053 15.3837 5.2317 14.9578 4.92953 14.6603L0.716696 10.577C0.364363 10.2352 0.241863 9.72183 0.402863 9.25866C0.559196 8.79666 0.958196 8.45949 1.44003 8.38366L7.23836 7.54249C7.67936 7.49699 8.0667 7.22866 8.26503 6.83199L10.82 1.59366C10.8807 1.47699 10.9589 1.36966 11.0534 1.27866L11.1584 1.19699C11.2132 1.13633 11.2762 1.08616 11.3462 1.04533L11.4734 0.998659L11.6717 0.916992H12.1629C12.6015 0.962492 12.9877 1.22499 13.1895 1.61699L15.7784 6.83199C15.965 7.21349 16.3279 7.47833 16.7467 7.54249L22.545 8.38366C23.035 8.45366 23.4445 8.79199 23.6067 9.25866C23.7595 9.72649 23.6277 10.2398 23.2684 10.577L18.905 14.707Z" fill="#61CA61"/>
</svg>
