<svg width="24" height="23" viewBox="0 0 24 23" fill="none" xmlns="http://www.w3.org/2000/svg">
<path d="M21.4296 11.4351C22.3797 10.6949 23.0988 9.72884 23.5385 8.65108C23.8414 9.52971 24 10.5145 24 11.614C24 14.239 23.0606 16.078 22.0971 17.2626C21.619 17.8506 21.1392 18.2729 20.7737 18.5512C20.7017 18.606 20.634 18.6552 20.5714 18.6994V20.4633C20.5714 21.8643 19.4201 23 18 23H17.1429C16.1961 23 15.4286 22.2427 15.4286 21.3089H12C12 22.2427 11.2325 23 10.2857 23H9.42857C8.00842 23 6.85714 21.8643 6.85714 20.4633V20.1026C6.70913 20.0561 6.54338 19.9986 6.36449 19.9273C5.67888 19.6543 4.78553 19.1756 3.96123 18.3513C2.94621 17.3363 2.37761 16.0661 2.09266 15.2691C1.99939 15.0082 1.81251 14.844 1.63066 14.7933C0.666017 14.5243 0 13.6558 0 12.667V11.3243C0 10.3504 0.65436 9.49447 1.60356 9.22675C1.78075 9.17678 1.97297 9.00598 2.06757 8.72387C2.29843 8.03525 2.74368 7.0177 3.55968 6.20171C4.22721 5.5342 4.94763 5.04084 5.49451 4.71598C5.66023 4.61752 5.81163 4.53359 5.94286 4.46414V1.28898C5.94286 0.691187 6.34015 0.26924 6.76709 0.0983039C7.1905 -0.0711953 7.75819 -0.0428524 8.18277 0.352848C8.61607 0.756667 9.18573 1.2397 9.795 1.63306C10.4198 2.03646 11.006 2.29259 11.4841 2.34042L11.4933 2.34133C10.5881 3.66682 10.1712 5.28978 10.3651 6.91508C10.5725 8.65389 11.9366 9.69953 13.0818 10.1674L17.1773 11.8404C18.3226 12.3083 20.0367 12.5202 21.4296 11.4351ZM6.42857 10.3159C7.13865 10.3159 7.71429 9.74804 7.71429 9.04756C7.71429 8.34709 7.13865 7.77924 6.42857 7.77924C5.7185 7.77924 5.14286 8.34709 5.14286 9.04756C5.14286 9.74804 5.7185 10.3159 6.42857 10.3159Z" fill="#4169E1"/>
</svg>
