<svg width="22" height="20" viewBox="0 0 22 20" fill="none" xmlns="http://www.w3.org/2000/svg">
<path d="M20.168 0.833008H1.83464C1.59152 0.833008 1.35836 0.929585 1.18645 1.10149C1.01455 1.2734 0.917969 1.50656 0.917969 1.74967V9.08301C0.917969 9.32612 1.01455 9.55928 1.18645 9.73119C1.35836 9.9031 1.59152 9.99967 1.83464 9.99967H4.58464V18.2497C4.58464 18.4928 4.68121 18.7259 4.85312 18.8979C5.02503 19.0698 5.25819 19.1663 5.5013 19.1663H16.5013C16.7444 19.1663 16.9776 19.0698 17.1495 18.8979C17.3214 18.7259 17.418 18.4928 17.418 18.2497V9.99967H20.168C20.4111 9.99967 20.6442 9.9031 20.8162 9.73119C20.9881 9.55928 21.0846 9.32612 21.0846 9.08301V1.74967C21.0846 1.50656 20.9881 1.2734 20.8162 1.10149C20.6442 0.929585 20.4111 0.833008 20.168 0.833008ZM6.41797 17.333V15.4997C6.9042 15.4997 7.37051 15.6928 7.71433 16.0366C8.05815 16.3805 8.2513 16.8468 8.2513 17.333H6.41797ZM15.5846 17.333H13.7513C13.7513 16.8468 13.9445 16.3805 14.2883 16.0366C14.6321 15.6928 15.0984 15.4997 15.5846 15.4997V17.333ZM15.5846 13.6663C14.6122 13.6663 13.6795 14.0526 12.9919 14.7403C12.3043 15.4279 11.918 16.3605 11.918 17.333H10.0846C10.0846 16.3605 9.69833 15.4279 9.01069 14.7403C8.32306 14.0526 7.39043 13.6663 6.41797 13.6663V6.33301H15.5846V13.6663ZM19.2513 8.16634H17.418V5.41634C17.418 5.17323 17.3214 4.94007 17.1495 4.76816C16.9776 4.59625 16.7444 4.49967 16.5013 4.49967H5.5013C5.25819 4.49967 5.02503 4.59625 4.85312 4.76816C4.68121 4.94007 4.58464 5.17323 4.58464 5.41634V8.16634H2.7513V2.66634H19.2513V8.16634ZM11.0013 12.7497C11.5452 12.7497 12.0769 12.5884 12.5291 12.2862C12.9814 11.984 13.3338 11.5546 13.542 11.0521C13.7501 10.5496 13.8046 9.99662 13.6985 9.46318C13.5924 8.92973 13.3304 8.43972 12.9458 8.05513C12.5613 7.67054 12.0712 7.40862 11.5378 7.30251C11.0044 7.1964 10.4514 7.25086 9.94892 7.45901C9.44643 7.66715 9.01694 8.01962 8.71476 8.47186C8.41259 8.92409 8.2513 9.45578 8.2513 9.99967C8.2513 10.729 8.54103 11.4285 9.05676 11.9442C9.57248 12.4599 10.272 12.7497 11.0013 12.7497ZM11.0013 9.08301C11.1826 9.08301 11.3598 9.13677 11.5106 9.23749C11.6613 9.33822 11.7788 9.48138 11.8482 9.64888C11.9176 9.81638 11.9357 10.0007 11.9004 10.1785C11.865 10.3563 11.7777 10.5197 11.6495 10.6479C11.5213 10.7761 11.358 10.8634 11.1801 10.8987C11.0023 10.9341 10.818 10.9159 10.6505 10.8466C10.483 10.7772 10.3398 10.6597 10.2391 10.5089C10.1384 10.3582 10.0846 10.181 10.0846 9.99967C10.0846 9.75656 10.1812 9.5234 10.3531 9.35149C10.525 9.17958 10.7582 9.08301 11.0013 9.08301Z" fill="white"/>
</svg>
